<svg xmlns="http://www.w3.org/2000/svg" width="1700" height="977" viewBox="0 0 1700 977"><defs><style>.a{fill:#8bc2ff;opacity:0.3;}.b{fill:none;stroke:#4e4e4e;stroke-miterlimit:10;stroke-width:2px;opacity:0.49;}.c,.d,.n{fill:#4e4e4e;}.c{font-size:28px;}.c,.d{font-family:HelveticaNeue-Medium, Helvetica Neue;font-weight:500;}.d{font-size:20px;}.e{font-size:22px;}.f{fill:#ce4d08;}.g{fill:#f07726;}.h{fill:#043864;}.i{fill:#0086a0;}.j{fill:#00a5dd;}.k{fill:#dd112a;}.l{fill:#fff;}.m{fill:#e62a38;}.n{font-size:16px;font-family:HelveticaNeue, Helvetica Neue;opacity:0.7;}</style></defs><g transform="translate(-110 -2505)"><rect class="a" width="569" height="622" rx="10" transform="translate(140 2505)"/><rect class="a" width="569" height="622" rx="10" transform="translate(1211 2505)"/><rect class="a" width="1364" height="255" rx="10" transform="translate(278 3227)"/><path class="b" d="M460.384,301.919V117.078c0-8.527,8.169-13.151,15.165-13.151H629.066" transform="translate(581.616 2449.596)"/><path class="b" d="M460.384,301.919V117.078" transform="translate(500.116 2925.073)"/><path class="b" d="M629.067,301.919V117.078c0-8.527-8.169-13.151-15.165-13.151H460.384" transform="translate(248.776 2449.596)"/><text class="c" transform="translate(1252 2555)"><tspan x="0" y="27">Willingness to Experiment &amp; </tspan></text><text class="d" transform="translate(905 2792)"><tspan x="11.42" y="20">Successful</tspan><tspan class="e"><tspan x="10.036" y="46">Enterprise</tspan></tspan><tspan x="7.54" y="72">AI Adoption</tspan></text><text class="c" transform="translate(208 2555)"><tspan x="0" y="27">Conceptual Understanding of AI </tspan><tspan x="0" y="61">among functional leaders</tspan></text><text class="c" transform="translate(365 3277)"><tspan x="0" y="27">Data Access &amp; Quality</tspan></text><text class="c" transform="translate(1069 3277)"><tspan x="0" y="27">In-House AI Playbooks and Guides</tspan></text><text class="c" transform="translate(208 2756)"><tspan x="0" y="27">Data Science skills &amp; talent</tspan></text><text class="c" transform="translate(208 2959)"><tspan x="0" y="27">Cross-functional AI Teams</tspan></text><text class="c" transform="translate(1252 2713)"><tspan x="0" y="27">Valuing Data</tspan></text><text class="c" transform="translate(1252 2871)"><tspan x="0" y="27">Valuing Cross-functional </tspan></text><g transform="translate(672.699 2544.671)"><path class="f" d="M169.313,557.639a20.374,20.374,0,0,1-.626-3.605c-.057.148-.1.3-.157.448A20.27,20.27,0,0,0,169.313,557.639Z" transform="translate(-27.413 -168.263)"/><path class="g" d="M641.8,551.741c.1-.229.2-.46.288-.692a20.611,20.611,0,0,0-.991-4.785,20.593,20.593,0,0,1,.63,3.585C641.784,550.477,641.807,551.109,641.8,551.741Z" transform="translate(-202.287 -165.388)"/><path class="h" d="M466.736,522.5a20.6,20.6,0,0,0-.63-3.585,20.347,20.347,0,0,0-9.936-12.637l-3.121-1.705-54.423-29.733a20.428,20.428,0,0,0-24.429,3.72,83.632,83.632,0,0,1-117.116,2.435,20.459,20.459,0,0,0-24.668-2.456l-52.64,32.123-3.189,1.945a20.252,20.252,0,0,0-8.379,10q.068.827.2,1.649c.054-.149.1-.3.157-.449a20.377,20.377,0,0,0,.626,3.605h0a20.259,20.259,0,0,0,4.255,8.027,187.916,187.916,0,0,0,53.415,42.783c81.9,44.04,181.849,21.284,237.337-49.476a20.185,20.185,0,0,0,2.609-4.359C466.813,523.755,466.79,523.123,466.736,522.5Zm-295.715,8.887a20.443,20.443,0,0,0,1.417,2.066A20.443,20.443,0,0,1,171.021,531.382Zm9.641-19.846h0q6.559,6.519,13.837,12.441Q187.23,518.061,180.662,511.536Zm116.519-8.45a84.068,84.068,0,0,1-39.739-20.9,83.52,83.52,0,0,0,49.411,22.39q3.232.305,6.461.358-3.227-.053-6.461-.358A82.945,82.945,0,0,1,297.181,503.086Zm14.544,63.264q5.91.051,11.795-.271Q317.639,566.4,311.725,566.35Zm47.293,28.1c1.666-.394,3.323-.819,4.977-1.258C362.341,593.627,360.684,594.052,359.018,594.446Zm22.223-6.719q4.264-1.58,8.45-3.364Q385.505,586.147,381.241,587.727Zm4.171-35.673q4.052-1.671,8.03-3.522Q389.467,550.391,385.412,552.054Zm71.119-44.581c.429.234.842.486,1.247.745-.405-.26-.818-.511-1.247-.745l-.176-.1Zm-3.121-1.705q-2.662,2.938-5.431,5.745Q450.748,508.705,453.41,505.768Zm-46.341,35.7q-3.338,1.906-6.747,3.671Q403.729,543.378,407.069,541.471Zm18.137,22.971q2.846-2.029,5.624-4.169Q428.053,562.413,425.206,564.442Zm38.633-36.9q-4.877,6.219-10.2,11.94,5.316-5.72,10.2-11.94c.2-.252.376-.512.559-.77C464.215,527.034,464.037,527.294,463.839,527.546Z" transform="translate(-27.293 -138.035)"/><path class="h" d="M290.833,180.118,288.5,115.6l-.008-.221a20.287,20.287,0,0,0-7.158-14.777c-.168-.048-.34-.088-.509-.132-.133-.118-.263-.241-.4-.356a20.356,20.356,0,0,0-8.736-.542,188.39,188.39,0,0,0-146.95,254.646,20.293,20.293,0,0,0,5.746,8.106c.172.05.346.091.519.136.13.117.256.239.388.352a20.273,20.273,0,0,0,16.268-2.182l.622-.38L203.77,326.39a20.354,20.354,0,0,0,9.087-22.62,83.522,83.522,0,0,1,62.038-103.017A20.445,20.445,0,0,0,290.833,180.118Z" transform="translate(-6.434)"/><path class="i" d="M661.7,506.178q.6-.169,1.186-.375-.5.13-1.014.236C661.817,506.085,661.76,506.132,661.7,506.178Z" transform="translate(-209.911 -150.416)"/><path class="h" d="M638.724,502.342l-.391-.214-1.286-.7c-.108.4-.208.791-.319,1.186l.391.214a20.344,20.344,0,0,0,15.342,1.734c.058-.045.115-.093.172-.139A20.318,20.318,0,0,1,638.724,502.342Z" transform="translate(-200.669 -148.795)"/><path class="j" d="M663.585,505.683c.14-.036.28-.069.419-.108l.119-.1C663.944,505.548,663.766,505.62,663.585,505.683Z" transform="translate(-210.608 -150.296)"/><path class="h" d="M490.631,119.576a188.262,188.262,0,0,0-53.991-19.193,20.05,20.05,0,0,0-9.178.371c-.061.047-.118.1-.179.147-.481.1-.958.2-1.427.335a20.372,20.372,0,0,0-7.883,16.875l.069,1.922,2.346,64.9a20.282,20.282,0,0,0,13.565,18.481A83.633,83.633,0,0,1,488.4,300.463a20.4,20.4,0,0,0,10.121,22.328l57.252,31.28c.111-.394.211-.791.319-1.186l1.286.7.391.214a20.314,20.314,0,0,0,13.908,2.077c.054-.042.1-.089.155-.132-.052.042-.1.09-.155.132q.51-.106,1.014-.236c.181-.063.359-.135.538-.2a19.994,19.994,0,0,0,6.553-9.273C609.03,260.533,572.951,163.843,490.631,119.576Zm68.344,65.573q3.991,6.314,7.452,12.911-3.467-6.586-7.452-12.911-4.37-6.914-9.359-13.465Q554.6,178.227,558.975,185.149ZM491.086,269.9q.483,3.295.7,6.629Q491.57,273.2,491.086,269.9ZM488.6,153.517q2.548,1.939,5.015,3.951Q491.144,155.455,488.6,153.517Zm16.461-23.784q2.474,1.662,4.882,3.391Q507.532,131.395,505.058,129.733Zm-67.063-4.788q4.056,1.419,8.074,3.033Q442.051,126.362,437.994,124.945Zm12.079,4.7q4.8,2.061,9.539,4.4Q454.879,131.7,450.074,129.645Zm2.737,2.405c1.343.617,2.68,1.256,4.015,1.907-1.335-.651-2.672-1.29-4.015-1.907-1.174-.539-2.352-1.06-3.533-1.572C450.459,130.991,451.637,131.512,452.811,132.051Zm10.46,5.2c.093.05.186.1.279.147a189.882,189.882,0,0,1,23.132,14.686A189.882,189.882,0,0,0,463.55,137.4C463.456,137.347,463.363,137.3,463.271,137.249Zm58.8,49.116a186.843,186.843,0,0,0-15.9-17.676A186.843,186.843,0,0,1,522.075,186.366ZM503.042,165.7q-4.037-3.771-8.327-7.326Q499,161.928,503.042,165.7Zm30.381,36.677c-1.113-1.759-2.266-3.5-3.44-5.222C531.157,198.88,532.31,200.618,533.423,202.377Zm-5.937-8.8c-.984-1.375-1.979-2.743-3-4.093C525.507,190.831,526.5,192.2,527.487,193.574Zm11.894,18.9q2.817,5.131,5.306,10.418-2.488-5.284-5.306-10.418c-1.019-1.857-2.079-3.694-3.162-5.518C537.3,208.777,538.361,210.614,539.381,212.471Zm12.674,28.406q-1.286-3.668-2.723-7.282Q550.768,237.209,552.055,240.877Zm3.518,11.112q-1.058-3.738-2.27-7.432Q554.515,248.249,555.573,251.989ZM536.211,155.97q2.867,3.008,5.586,6.126-2.719-3.117-5.586-6.126-1.435-1.5-2.9-2.979Q534.776,154.466,536.211,155.97Zm-8.933-8.763q-2.867-2.63-5.862-5.149Q524.406,144.581,527.277,147.207Zm-92.243-46.342q3.453.658,6.893,1.448-3.44-.791-6.893-1.448-1-.191-1.987-.278Q434.034,100.676,435.034,100.865Zm-15.4,14.381a20.625,20.625,0,0,0-.054,2.382l.069,1.922-.069-1.922A20.625,20.625,0,0,1,419.633,115.247Zm8.238,82.846a19.992,19.992,0,0,0,4.08,3.162A19.992,19.992,0,0,1,427.872,198.093Zm15.628,8.06a83.869,83.869,0,0,0-7.94-3.219A83.7,83.7,0,0,1,443.5,206.152Zm20.342,13.29c1.26,1.115,2.495,2.252,3.675,3.433C466.336,221.694,465.1,220.557,463.841,219.442Zm25.684,85.52q.022.823.11,1.637Q489.547,305.786,489.525,304.962Zm3.06,10.184q.338.548.712,1.074Q492.925,315.693,492.585,315.146Zm94.59-9.206q-.436,4.1-1.055,8.2.62-4.1,1.055-8.2t.69-8.208Q587.611,301.836,587.176,305.941ZM567.7,200.526a189.239,189.239,0,0,1,20.49,89A189.239,189.239,0,0,0,567.7,200.526Z" transform="translate(-119.715 -0.256)"/><circle class="k" cx="25.97" cy="25.97" r="25.97" transform="translate(426.979 168.563)"/><circle class="k" cx="25.97" cy="25.97" r="25.97" transform="translate(94.45 168.345)"/><g transform="translate(158.828 199.646)"><path class="l" d="M204.18,320.147l-1.376,4.132-.4-.134q-1.828-.609-2.251.661a1.322,1.322,0,0,0,.1,1.177,1.708,1.708,0,0,0,.937.711q1.306.435,2.786-1.157a37.558,37.558,0,0,1,2.84-2.905,5.016,5.016,0,0,1,4.686-.523q5.225,1.74,3.223,7.748a7.231,7.231,0,0,1-2.476,3.87,4.672,4.672,0,0,1-4.195.239l-.593-.2,1.424-4.274.4.134q1.972.657,2.454-.792a1.348,1.348,0,0,0-.115-1.2,1.889,1.889,0,0,0-1.049-.772q-1.33-.443-2.738,1.093-2.4,2.549-2.745,2.779a4.8,4.8,0,0,1-4.519.5q-5.294-1.763-3.441-7.332a6.239,6.239,0,0,1,2.641-3.773A5.564,5.564,0,0,1,204.18,320.147Z" transform="translate(-196.644 -281.19)"/><path class="l" d="M219,315.212l-16.246-7.446,1.877-4.1,8.191,3.754-3.205-4.241,2.016-4.4,3.509,5.739,9-.529-2,4.368-5.181.131.757,1.173,3.163,1.449Z" transform="translate(-198.905 -273.454)"/><path class="l" d="M215.149,292.62l-2.929-1.634,2.195-3.934,2.929,1.633Zm12.678,7.071L216,293.1l2.195-3.935,11.825,6.6Z" transform="translate(-202.408 -269.113)"/><path class="l" d="M232.993,290.685l-15.118-9.528,2.4-3.812,15.118,9.529Z" transform="translate(-204.501 -265.521)"/><path class="l" d="M238.643,281.965l-14.587-10.324,2.6-3.677,14.587,10.324Z" transform="translate(-206.788 -262.049)"/><path class="l" d="M243.757,271.207l2.519-3.048a2.24,2.24,0,0,0,1.257.6,1.1,1.1,0,0,0,.945-.437,1.392,1.392,0,0,0,.349-.913,1.035,1.035,0,0,0-.408-.823q-.713-.591-2.241.355a18.494,18.494,0,0,1-2.977,1.6,4.086,4.086,0,0,1-5.12-3.744,6.037,6.037,0,0,1,1.637-3.907q3.235-3.917,6.516-1.208l-2.486,3.011q-1.158-.956-1.923-.03a.976.976,0,0,0,.077,1.557q.656.542,2.145-.435a13.956,13.956,0,0,1,2.919-1.647,3.661,3.661,0,0,1,3.651.808,4.125,4.125,0,0,1,1.6,3.172,5.979,5.979,0,0,1-1.566,3.9Q247.269,274.109,243.757,271.207Z" transform="translate(-211.977 -258.575)"/></g><g transform="translate(361.556 180.773)"><path class="l" d="M531.231,237.474l.757-.845a5.739,5.739,0,0,0,1.307-1.95,1.15,1.15,0,0,0-.4-1.232,1.528,1.528,0,0,0-2.065.055,53.939,53.939,0,0,0-7.372,8.239,1.528,1.528,0,0,0,.174,2.058q.908.813,2.48-.519a27.608,27.608,0,0,0,2.011-2.12l3.8,3.4-1,1.12q-4.688,5.239-9.673.778-3.213-2.874-2.727-5.711.421-2.553,4.352-6.947,3.893-4.351,6.625-5.046t5.774,2.028q4.88,4.366.609,9.141l-.85.951Z" transform="translate(-518.461 -228.616)"/><path class="l" d="M535.9,256.421l8.711-7.609,3.356,3.843-7.622,6.657q-1.365,1.194-.546,2.133t2.187-.254l7.622-6.657,3.356,3.843-11.55,10.089-3.245-3.715,1.409-1.231-.038-.043a3.687,3.687,0,0,1-4.15-1.3Q532.764,259.161,535.9,256.421Z" transform="translate(-524.284 -236.089)"/><path class="l" d="M547.114,275.294,563.5,263.413l3,4.131-16.386,11.881Z" transform="translate(-529.064 -241.493)"/><path class="l" d="M563.845,278.174l2.906-1.824.9,1.441,3.841-2.411,2.713,4.322-3.842,2.411,1.07,1.7-2.9,1.823-1.07-1.7-6.216,3.9a1.067,1.067,0,0,0-.363,1.667l.422.672-2.881,1.809a22.826,22.826,0,0,1-1.62-2.263,5.71,5.71,0,0,1-1.2-3.2q.146-1.263,2.216-2.563l6.931-4.35Z" transform="translate(-532.201 -245.921)"/><path class="l" d="M564.6,296.767l10.349-5.162,2.278,4.566-9.056,4.517q-1.623.81-1.067,1.926t2.18.306l9.056-4.518,2.277,4.567-13.723,6.846-2.2-4.414,1.674-.835-.025-.051a3.688,3.688,0,0,1-3.687-2.311Q560.868,298.628,564.6,296.767Z" transform="translate(-534.6 -251.925)"/><path class="l" d="M570.454,319.471l14.353-5.4,1.738,4.616-2.282.859.02.054a4.2,4.2,0,0,1,2.437.521,3.244,3.244,0,0,1,1.424,1.69l.289.769-4.457,1.678a6.768,6.768,0,0,0-.343-1.234q-1.008-2.68-3.556-1.72l-7.826,2.946Z" transform="translate(-537.701 -260.237)"/><path class="l" d="M586.068,345.219l-1.96-7.311-1.944.521q-2,.537-1.642,1.865.37,1.382,2.944.692l1.189,4.436q-5.607,1.416-7.139-4.294-.945-3.524.438-5.374t5.654-2.994q4.216-1.13,6.407-.133t3.085,4.338q.823,3.065-.336,4.874-1.274,1.926-5.19,2.976Zm1.45-5.319.657-.176q2.272-.609,1.906-1.978-.359-1.342-2.633-.733l-.657.176Z" transform="translate(-540.173 -266.932)"/></g><g transform="translate(221.383 378.016)"><path class="l" d="M295.947,562.017l10.193-20.293,8.271,4.154q5.57,2.8,2.858,8.2-2.155,4.292-5.894,3.09l-.028.057a3.632,3.632,0,0,1,1.936,2.592,6.634,6.634,0,0,1-.9,3.625l-.871,1.734a9.021,9.021,0,0,0-1.157,2.943,3.675,3.675,0,0,0,.282.925l-.142.284-5.628-2.827a11.245,11.245,0,0,1,1.43-4.122l.685-1.365a5.262,5.262,0,0,0,.773-2.495,1.658,1.658,0,0,0-1.051-1.276l-1.392-.7-4.083,8.128Zm13.567-13.829-2.4,4.775,1.052.528q2.217,1.114,3.43-1.3,1.185-2.358-1.06-3.487Z" transform="translate(-295.947 -541.724)"/><path class="l" d="M340.75,575.772l-8.058-2.68-.712,2.142q-.733,2.2.731,2.691,1.523.507,2.467-2.33l4.89,1.627q-2.138,6.126-8.432,4.034-3.885-1.292-4.763-3.73t.688-7.145q1.546-4.647,3.833-6.082t5.969-.21q3.38,1.123,4.357,3.326,1.018,2.384-.418,6.7Zm-4.087-4.644.241-.725q.833-2.5-.676-3.007-1.479-.492-2.312,2.013l-.241.724Z" transform="translate(-307.274 -549.791)"/><path class="l" d="M351.081,580.762l4.934.958a2.849,2.849,0,0,0,.094,1.768,1.408,1.408,0,0,0,1.062.789,1.777,1.777,0,0,0,1.231-.166,1.316,1.316,0,0,0,.672-.956q.224-1.154-1.759-2.285a23.535,23.535,0,0,1-3.594-2.35,5.193,5.193,0,0,1,1.065-7.991,7.679,7.679,0,0,1,5.355-.548q6.339,1.231,5.308,6.539l-4.871-.946q.364-1.873-1.135-2.164-1.436-.279-1.691,1.032-.207,1.062,1.79,2.129a17.8,17.8,0,0,1,3.612,2.256,4.652,4.652,0,0,1,1.317,4.565,5.241,5.241,0,0,1-2.568,3.714,7.59,7.59,0,0,1-5.3.622Q349.978,586.444,351.081,580.762Z" transform="translate(-316.291 -552.098)"/><path class="l" d="M390.931,582.545a12.193,12.193,0,0,1-1.617,6.114q-1.856,2.723-6.237,2.454-4.572-.28-6-3.044-1.026-1.975-.752-6.451a12.189,12.189,0,0,1,1.617-6.115q1.855-2.723,6.237-2.455,4.572.281,6,3.045Q391.2,578.067,390.931,582.545ZM382.042,582q-.165,2.7-.127,3.116.15,2.24,1.388,2.316t1.659-2.129q.091-.44.255-3.107.165-2.7.129-3.147-.149-2.239-1.388-2.316t-1.662,2.161Q382.206,579.3,382.042,582Z" transform="translate(-325.671 -553.307)"/><path class="l" d="M403.478,586.755l-.976-12.94,5.709-.43.854,11.322q.153,2.031,1.548,1.925t1.243-2.135L411,573.175l5.709-.431L418,589.9l-5.518.416-.158-2.094-.064.005a4.141,4.141,0,0,1-3.964,2.851Q403.83,591.418,403.478,586.755Z" transform="translate(-335.378 -553.203)"/><path class="l" d="M431.077,587.6l-3.312-16.885,5.431-1.066.527,2.684.062-.013a4.717,4.717,0,0,1,1.029-2.6,3.642,3.642,0,0,1,2.135-1.261l.905-.178,1.029,5.244a7.665,7.665,0,0,0-1.429.151q-3.153.619-2.565,3.615L436.7,586.5Z" transform="translate(-344.726 -551.551)"/><path class="l" d="M460.75,569.263l-4.91,1.562a7.04,7.04,0,0,0-1.177-2.5,1.309,1.309,0,0,0-1.459-.337,1.352,1.352,0,0,0-.935,1.466,16.849,16.849,0,0,0,.958,4.167,16.634,16.634,0,0,0,1.62,3.941,1.348,1.348,0,0,0,1.606.641q1.575-.5.719-3.2l-.338-1.061,4.91-1.561q1.253,3.94.309,6.009-1,2.22-4.482,3.328-3.517,1.118-5.574.1-2.578-1.284-4.138-6.194-1.7-5.335-.22-8.041,1.145-2.067,4.722-3.2,3.424-1.089,5.538.308A8.434,8.434,0,0,1,460.75,569.263Z" transform="translate(-351.826 -549.934)"/><path class="l" d="M484.728,561.807l-7.685,3.613.961,2.044q.988,2.1,2.384,1.444,1.454-.682.181-3.388l4.663-2.192q2.674,5.912-3.327,8.734-3.705,1.742-6.022.581t-4.427-5.651q-2.084-4.432-1.416-7.049t4.18-4.267q3.223-1.516,5.449-.594,2.379,1.025,4.316,5.141Zm-6.162-.547-.325-.691q-1.123-2.389-2.562-1.713-1.411.663-.287,3.053l.324.691Z" transform="translate(-360.31 -546.539)"/><path class="l" d="M495.2,558.469l4.236-2.7a2.85,2.85,0,0,0,1.286,1.217,1.4,1.4,0,0,0,1.313-.159,1.771,1.771,0,0,0,.777-.968,1.313,1.313,0,0,0-.171-1.155q-.633-.991-2.849-.445a23.622,23.622,0,0,1-4.225.772,5.195,5.195,0,0,1-4.732-6.527,7.676,7.676,0,0,1,3.5-4.086q5.443-3.475,8.352,1.084l-4.182,2.669q-1.027-1.608-2.313-.787a1.24,1.24,0,0,0-.515,1.913q.582.912,2.765.311a17.722,17.722,0,0,1,4.173-.852,4.65,4.65,0,0,1,4.1,2.4,5.241,5.241,0,0,1,.7,4.461A7.6,7.6,0,0,1,504,559.721Q498.318,563.349,495.2,558.469Z" transform="translate(-367.986 -542.163)"/></g><g transform="translate(116.613 185.892)"><path class="l" d="M137.246,253.588h-4.425V242.119h-3.189v-2.76a6.542,6.542,0,0,0,3.034-.571,3.224,3.224,0,0,0,1.392-2.046h3.188Z" transform="translate(-129.632 -236.742)"/></g><g transform="translate(447.406 186.11)"><path class="l" d="M659.023,242.8h-4.14a6.842,6.842,0,0,1,1.047-4.14q1.261-1.57,4.473-1.57,3.07,0,4.378,1.356a4.509,4.509,0,0,1,1.048,3.236,6.723,6.723,0,0,1-2.094,5l-2.617,2.546q-.453.453-.619.643a2.385,2.385,0,0,0-.476.738h5.806v3.331H654.741a8.833,8.833,0,0,1,2.522-6.448l2.951-3a3.839,3.839,0,0,0,1.189-2.76q0-1.879-1.142-1.879-1.238,0-1.237,2.236Z" transform="translate(-654.741 -237.088)"/></g><circle class="k" cx="25.97" cy="25.97" r="25.97" transform="translate(251.759 486.196) rotate(-61.731)"/><g transform="translate(281.388 467.033)"><path class="l" d="M395.34,688.124h-4q.143-5.091,5.306-5.092,2.987,0,4.23,1.214a4.7,4.7,0,0,1,1.1,3.45,3.848,3.848,0,0,1-.523,2.046,2.8,2.8,0,0,1-1.832,1.308v.047q2.665.477,2.665,3.688,0,5.425-5.5,5.425a6.23,6.23,0,0,1-4.235-1.166q-1.356-1.237-1.356-4.211h4.14a4.947,4.947,0,0,0,.3,1.963,1.031,1.031,0,0,0,1.011.655,1.093,1.093,0,0,0,1.142-.928,11.738,11.738,0,0,0,.071-1.689,2.685,2.685,0,0,0-.368-1.654,1.553,1.553,0,0,0-1.249-.44h-1.118v-2.76h.642a1.926,1.926,0,0,0,1.487-.488,2.927,2.927,0,0,0,.44-1.891q0-1.809-1.141-1.809a.981.981,0,0,0-.935.512A4.16,4.16,0,0,0,395.34,688.124Z" transform="translate(-391.2 -683.032)"/></g></g><circle class="m" cx="7" cy="7" r="7" transform="translate(1204 2547)"/><circle class="m" cx="7" cy="7" r="7" transform="translate(953 3220)"/><circle class="m" cx="7" cy="7" r="7" transform="translate(702 2547)"/><text class="n" transform="translate(1252 2599)"><tspan x="0" y="15">- Expectations of AI&apos;s requirements &amp; Challenges</tspan></text><text class="n" transform="translate(208 2642)"><tspan x="0" y="15">- How AI &quot;Works&quot;</tspan></text><text class="n" transform="translate(365 3333)"><tspan x="0" y="15">- Accessing data assets</tspan></text><text class="n" transform="translate(1069 3333)"><tspan x="0" y="15">- Frameworks for maintaining existing AI projects</tspan></text><text class="n" transform="translate(365 3371)"><tspan x="0" y="15">- Experimenting with data assets</tspan></text><text class="n" transform="translate(1069 3371)"><tspan x="0" y="15">- Frameworks for Deploying New AI systems</tspan></text><text class="n" transform="translate(365 3409)"><tspan x="0" y="15">- Overhauling format, architecture, accessibility</tspan></text><text class="n" transform="translate(1069 3409)"><tspan x="0" y="15">- Retained Learnings as a habit</tspan></text><text class="n" transform="translate(208 2680)"><tspan x="0" y="15">- Basic AI Terms and Components</tspan></text><text class="n" transform="translate(208 2718)"><tspan x="0" y="15">- Representative Use-Cases</tspan></text><text class="n" transform="translate(208 2807)"><tspan x="0" y="15">- Data Science/ AI Leader</tspan></text><text class="n" transform="translate(208 3010)"><tspan x="0" y="15">- How to assemble team</tspan></text><text class="n" transform="translate(208 3048)"><tspan x="0" y="15">- How to work together</tspan></text><text class="n" transform="translate(208 2845)"><tspan x="0" y="15">- ML Engineers</tspan></text><text class="n" transform="translate(208 2883)"><tspan x="0" y="15">- Data Engineers</tspan></text><text class="n" transform="translate(208 2921)"><tspan x="0" y="15">- IT Staff that Understand AI</tspan></text><text class="n" transform="translate(1252 2757)"><tspan x="0" y="15">- Protocols of handling &amp; maintaining existing data types</tspan></text><text class="n" transform="translate(1252 2915)"><tspan x="0" y="15">-Expectations of AI&apos;s requirements &amp; challenges</tspan></text><text class="n" transform="translate(1252 2637)"><tspan x="0" y="15">- Executive Understanding of why AI requires Iteration</tspan></text><text class="n" transform="translate(1252 2795)"><tspan x="0" y="15">- Protocols for establishing new data types</tspan></text><text class="n" transform="translate(1253 2949)"><tspan x="0" y="15">- Team participation mix</tspan></text><text class="n" transform="translate(1252 2675)"><tspan x="0" y="15">- Deliberate Experimentation Efforts</tspan></text><text class="n" transform="translate(1252 2833)"><tspan x="0" y="15">- Consistent use of data assets</tspan></text><rect class="m" width="60" height="60" rx="5" transform="translate(1750 2539)"/><rect class="m" width="60" height="60" rx="5" transform="translate(110 2539)"/><rect class="m" width="60" height="60" rx="5" transform="translate(1750 2697)"/><rect class="m" width="60" height="60" rx="5" transform="translate(110 2747)"/><rect class="m" width="60" height="60" rx="5" transform="translate(1750 2855)"/><rect class="m" width="60" height="60" rx="5" transform="translate(110 2947)"/><rect class="m" width="60" height="60" rx="5" transform="translate(248 3268)"/><rect class="m" width="60" height="60" rx="5" transform="translate(1612 3268)"/><path class="l" d="M24.533,37.258a5.672,5.672,0,1,0,4.873.925l5.639-11.062a4.352,4.352,0,0,0,2.357-.014,4.449,4.449,0,0,0,1.851-1.012L45.4,30.476a3.63,3.63,0,0,0-.116,2.256,3.673,3.673,0,1,0,2.574-4.512,3.521,3.521,0,0,0-1.359.723l-6.131-4.4a4.45,4.45,0,0,0,.217-3.008,4.982,4.982,0,0,0-.362-.911l5.394-4.483a4.874,4.874,0,1,0-1.634-2.5,4.751,4.751,0,0,0,.419,1.041L39.007,19.2a4.588,4.588,0,0,0-3.991-.81,4.5,4.5,0,0,0-2.111,1.272l-6.276-3.774a6.3,6.3,0,0,0,.26-4.136,6.4,6.4,0,1,0-4.468,7.866,6.248,6.248,0,0,0,3.239-2.111l6.29,3.774a4.5,4.5,0,0,0-.087,2.661,4.568,4.568,0,0,0,1.5,2.314L27.728,37.315A5.848,5.848,0,0,0,24.533,37.258ZM47.886,9.509a2.991,2.991,0,1,1-2.1,3.673A2.989,2.989,0,0,1,47.886,9.509ZM27.02,46.353a3.755,3.755,0,1,1,2.632-4.613A3.748,3.748,0,0,1,27.02,46.353ZM50.546,31.314a1.777,1.777,0,1,1-2.183-1.244A1.785,1.785,0,0,1,50.546,31.314ZM35.508,20.224a2.624,2.624,0,1,1-1.836,3.225A2.632,2.632,0,0,1,35.508,20.224ZM16.377,14.642a4.506,4.506,0,1,1,5.538,3.152A4.5,4.5,0,0,1,16.377,14.642Z" transform="translate(1745.672 2540.958)"/><g transform="translate(1744 2697)"><ellipse class="l" cx="12" cy="3" rx="12" ry="3" transform="translate(24 13)"/><path class="l" d="M36.167,54.838c7.871,0,12.167-2.008,12.167-3.042V45.02c-2.56,1.535-7.385,2.331-12.167,2.331S26.56,46.555,24,45.02V51.8C24,52.831,28.3,54.838,36.167,54.838Zm9.383-6.552A1.4,1.4,0,1,1,44.156,49.7,1.4,1.4,0,0,1,45.55,48.286Z" transform="translate(0 -17.035)"/><path class="l" d="M36.167,74.838c7.871,0,12.167-2.008,12.167-3.042V65.02c-2.56,1.535-7.385,2.331-12.167,2.331S26.56,66.555,24,65.02V71.8C24,72.831,28.3,74.838,36.167,74.838Zm9.383-6.552A1.4,1.4,0,1,1,44.156,69.7,1.4,1.4,0,0,1,45.55,68.286Z" transform="translate(0 -27.676)"/><path class="l" d="M36.167,34.838c7.871,0,12.167-2.008,12.167-3.042V25.02c-2.56,1.535-7.385,2.331-12.167,2.331S26.56,26.555,24,25.02V31.8C24,32.831,28.3,34.838,36.167,34.838Zm9.313-6.552A1.4,1.4,0,1,1,44.086,29.7,1.4,1.4,0,0,1,45.48,28.286Z" transform="translate(0 -6.395)"/></g><path class="l" d="M30.385,18.117a1.006,1.006,0,0,1-1.007-1.007c0-.419-.819-1.428-2.451-1.945a1.007,1.007,0,0,1-.214-1.823,3.065,3.065,0,1,0-3.139,0,1.007,1.007,0,0,1-.214,1.823c-1.632.517-2.451,1.526-2.451,1.945a1.007,1.007,0,0,1-2.014,0,4.049,4.049,0,0,1,2.313-3.186,5.08,5.08,0,1,1,7.872,0,4.049,4.049,0,0,1,2.313,3.186A1.007,1.007,0,0,1,30.385,18.117ZM45.545,36.692a4.049,4.049,0,0,0-2.313-3.186,5.079,5.079,0,1,0-7.872,0,4.049,4.049,0,0,0-2.312,3.186,1.007,1.007,0,0,0,2.014,0c0-.419.819-1.428,2.451-1.945a1.007,1.007,0,0,0,.214-1.823,3.065,3.065,0,1,1,3.139,0,1.007,1.007,0,0,0,.214,1.823c1.632.517,2.451,1.526,2.451,1.945a1.007,1.007,0,0,0,2.014,0Zm-28.308,0a4.049,4.049,0,0,0-2.312-3.186,5.08,5.08,0,1,0-7.872,0A4.049,4.049,0,0,0,4.74,36.692a1.007,1.007,0,0,0,2.014,0c0-.419.819-1.428,2.451-1.945a1.007,1.007,0,0,0,.214-1.823,3.065,3.065,0,1,1,3.139,0,1.007,1.007,0,0,0,.214,1.823c1.632.517,2.451,1.526,2.451,1.945a1.007,1.007,0,0,0,2.014,0ZM40.064,23.528a1.007,1.007,0,0,0,.508-1.331,16.925,16.925,0,0,0-5.982-7.114,1.007,1.007,0,1,0-1.127,1.67,14.9,14.9,0,0,1,5.27,6.267,1.008,1.008,0,0,0,1.331.508ZM33.389,42.506a1.007,1.007,0,0,0-.983-1.756,15.15,15.15,0,0,1-14.525,0,1.007,1.007,0,0,0-.983,1.756,16.91,16.91,0,0,0,16.492,0ZM11.553,23.019a14.9,14.9,0,0,1,5.27-6.267,1.007,1.007,0,1,0-1.127-1.67A16.925,16.925,0,0,0,9.714,22.2a1.007,1.007,0,0,0,1.839.822Z" transform="translate(1755.26 2859.38)"/><g transform="translate(-660.191 -320)"><path class="l" d="M36.1,39.235V37.727a9.391,9.391,0,0,1-6.362,2.061,9.391,9.391,0,0,1-6.362-2.061v1.508c0,1.772,2.914,3.27,6.362,3.27S36.1,41.007,36.1,39.235Z" transform="translate(770.712 3063.763)"/><path class="l" d="M41.749,21.746l3.084-3.084a4.224,4.224,0,0,1-.429-.354,4.12,4.12,0,0,1-.354-.43L41.2,20.725A3.269,3.269,0,0,1,41.749,21.746Z" transform="translate(766.044 3068.962)"/><path class="l" d="M46.289,15.575a3.013,3.013,0,0,0,4.259,0,3.011,3.011,0,1,0-4.259-4.258,1.935,1.935,0,0,0-.151.168A3.013,3.013,0,0,0,46.289,15.575Z" transform="translate(764.942 3070.913)"/><path class="l" d="M23.38,23.07c0,1.772,2.914,3.27,6.362,3.27s6.362-1.5,6.362-3.27-2.913-3.27-6.362-3.27S23.38,21.3,23.38,23.07Z" transform="translate(770.712 3068.459)"/><path class="l" d="M29.742,37.325c3.449,0,6.362-1.5,6.362-3.27V32.547a9.391,9.391,0,0,1-6.362,2.061,9.391,9.391,0,0,1-6.362-2.061v1.508C23.38,35.827,26.294,37.325,29.742,37.325Z" transform="translate(770.712 3065.12)"/><path class="l" d="M27.933,6.443a3.011,3.011,0,0,0,6-.022c.007-.075.006-.146.006-.218a3.011,3.011,0,1,0-6.023,0C27.92,6.287,27.927,6.365,27.933,6.443Z" transform="translate(769.523 3072.809)"/><path class="l" d="M29.742,32.145c3.449,0,6.362-1.5,6.362-3.27V27.367a9.391,9.391,0,0,1-6.362,2.061,9.391,9.391,0,0,1-6.362-2.061v1.508C23.38,30.648,26.294,32.145,29.742,32.145Z" transform="translate(770.712 3066.477)"/><path class="l" d="M6.2,27.92a3,3,0,1,0,.286.013C6.4,27.927,6.3,27.92,6.2,27.92Z" transform="translate(776 3066.332)"/><path class="l" d="M15.575,46.288a3,3,0,0,0-4.025-.207,2.277,2.277,0,0,0-.232.207,3.011,3.011,0,1,0,4.259,4.259c.058-.059.114-.12.169-.187A3.023,3.023,0,0,0,15.575,46.288Z" transform="translate(774.103 3061.752)"/><path class="l" d="M20.963,21.746a3.245,3.245,0,0,1,.545-1.02l-2.847-2.847a3.957,3.957,0,0,1-.354.43,4.155,4.155,0,0,1-.431.352Z" transform="translate(772.153 3068.962)"/><path class="l" d="M19.5,32.357V31.25H12.78a4.148,4.148,0,0,1,.052.554,4.029,4.029,0,0,1-.042.554Z" transform="translate(773.488 3065.46)"/><path class="l" d="M52.437,18.983a17.567,17.567,0,0,1,2.242,5.426,4.215,4.215,0,0,1,.56-.1c.137-.01.248-.017.367-.017.063,0,.125.007.187.01a18.689,18.689,0,0,0-2.428-5.921.522.522,0,0,0-.088-.092c-.038.041-.066.089-.107.13A4.1,4.1,0,0,1,52.437,18.983Z" transform="translate(763.102 3068.855)"/><path class="l" d="M55.661,27.92c-.092,0-.178.007-.263.013a3.012,3.012,0,0,0,.044,6c.075.006.146.007.219.006a3.011,3.011,0,0,0,0-6.023Z" transform="translate(763.046 3066.332)"/><path class="l" d="M32.358,16.869V12.777a2.89,2.89,0,0,1-1.107,0v4.091c.183-.007.366-.015.553-.015S32.175,16.862,32.358,16.869Z" transform="translate(768.651 3070.298)"/><path class="l" d="M55.606,37.538c-.106,0-.21,0-.308-.01a3.951,3.951,0,0,1-.63-.108,17.6,17.6,0,0,1-2.229,5.418c.027.017.056.029.083.046a3.728,3.728,0,0,1,.647.528c.041.041.07.09.109.134.019-.022.046-.033.063-.059a18.675,18.675,0,0,0,2.439-5.958C55.724,37.532,55.666,37.538,55.606,37.538Z" transform="translate(763.101 3063.844)"/><path class="l" d="M7.207,24.284c.125,0,.244.007.361.016a4.105,4.105,0,0,1,.56.108,17.741,17.741,0,0,1,2.256-5.423,4.076,4.076,0,0,1-.488-.345,2.99,2.99,0,0,1-.253-.229c-.045-.045-.077-.1-.12-.145a18.846,18.846,0,0,0-2.5,5.97.5.5,0,0,0,0,.058C7.085,24.291,7.145,24.284,7.207,24.284Z" transform="translate(774.996 3068.861)"/><path class="l" d="M46.29,50.545a3.011,3.011,0,1,0,4.259-4.259,2.676,2.676,0,0,0-.465-.381,3.01,3.01,0,0,0-3.969,4.443A1.416,1.416,0,0,0,46.29,50.545Z" transform="translate(764.941 3061.753)"/><path class="l" d="M24.284,55.6c0-.132.007-.255.016-.379a4.065,4.065,0,0,1,.106-.542,17.568,17.568,0,0,1-5.426-2.259,3.952,3.952,0,0,1-.333.48c-.071.088-.149.173-.235.261-.046.046-.1.077-.147.121a18.686,18.686,0,0,0,5.995,2.5.274.274,0,0,0,.035,0C24.291,55.728,24.284,55.666,24.284,55.6Z" transform="translate(772.052 3059.914)"/><path class="l" d="M43.413,53.168a2.585,2.585,0,0,1-.263-.3,3.849,3.849,0,0,1-.307-.445,17.636,17.636,0,0,1-5.422,2.254,4.2,4.2,0,0,1,.1.5c.01.149.018.279.018.418,0,.064-.007.126-.01.189a.3.3,0,0,0,.035,0,18.741,18.741,0,0,0,6-2.5C43.514,53.246,43.459,53.213,43.413,53.168Z" transform="translate(767.034 3059.913)"/><path class="l" d="M48.785,31.8a4.147,4.147,0,0,1,.052-.554H42.12v1.107h6.719A4.029,4.029,0,0,1,48.785,31.8Z" transform="translate(765.804 3065.46)"/><path class="l" d="M9.645,43.417a3.271,3.271,0,0,1,.328-.292,3.876,3.876,0,0,1,.409-.279A17.8,17.8,0,0,1,8.13,37.434a4.116,4.116,0,0,1-.92.108c-.056,0-.111-.007-.168-.009a.513.513,0,0,0,0,.134,18.889,18.889,0,0,0,2.475,5.9C9.566,43.519,9.6,43.464,9.645,43.417Z" transform="translate(774.992 3063.84)"/><path class="l" d="M44.4,44.32a4.251,4.251,0,0,1,.43-.354l-3.085-3.085A3.245,3.245,0,0,1,41.2,41.9l2.847,2.847A4.206,4.206,0,0,1,44.4,44.32Z" transform="translate(766.044 3062.937)"/><path class="l" d="M18.264,9.522c.046.043.1.075.145.12a3.242,3.242,0,0,1,.24.266,3.9,3.9,0,0,1,.331.476,17.543,17.543,0,0,1,5.426-2.245,4.041,4.041,0,0,1-.107-.593c-.009-.12-.016-.227-.016-.34,0-.061.007-.12.01-.18A18.672,18.672,0,0,0,18.264,9.522Z" transform="translate(772.052 3071.805)"/><path class="l" d="M37.538,7.2c0,.106,0,.21-.01.307a3.969,3.969,0,0,1-.108.631,17.708,17.708,0,0,1,5.418,2.242,4.057,4.057,0,0,1,.354-.5,2.89,2.89,0,0,1,.221-.244c.046-.046.1-.077.146-.12a18.819,18.819,0,0,0-6.031-2.5C37.532,7.081,37.538,7.142,37.538,7.2Z" transform="translate(767.034 3071.807)"/><path class="l" d="M11.493,15.734a3.078,3.078,0,0,0,4.083-.16,3.018,3.018,0,0,0,.169-4.068,2.314,2.314,0,0,0-.17-.19,3.011,3.011,0,1,0-4.257,4.26A2.03,2.03,0,0,0,11.493,15.734Z" transform="translate(774.103 3070.913)"/><path class="l" d="M20.963,40.883l-3.084,3.084a2.89,2.89,0,0,1,.783.782L21.509,41.9A3.268,3.268,0,0,1,20.963,40.883Z" transform="translate(772.153 3062.937)"/><path class="l" d="M27.933,55.356c-.006.1-.013.2-.013.306a3.011,3.011,0,0,0,6.023,0c0-.113-.007-.218-.014-.325a3.015,3.015,0,0,0-6,.019Z" transform="translate(769.523 3059.855)"/><path class="l" d="M31.251,45.679v4.09a2.991,2.991,0,0,1,1.107,0v-4.09c-.183.007-.367.015-.554.015S31.434,45.686,31.251,45.679Z" transform="translate(768.651 3061.681)"/></g><g transform="translate(117.5 2544.6)"><path class="l" d="M38.924,34.809h-1.8V33.385a6.12,6.12,0,0,0-6.113-6.113H23.726V25.64a1.34,1.34,0,0,0-2.679,0v1.633H13.762A6.12,6.12,0,0,0,7.65,33.385v1.423h-1.8A3.359,3.359,0,0,0,2.5,38.158v4.689A3.359,3.359,0,0,0,5.849,46.2h1.8V47.62a6.12,6.12,0,0,0,6.113,6.113H31.011a6.12,6.12,0,0,0,6.113-6.113V46.2h1.8a3.359,3.359,0,0,0,3.349-3.349V38.158A3.359,3.359,0,0,0,38.924,34.809ZM5.849,43.517a.706.706,0,0,1-.712-.712V38.158a.706.706,0,0,1,.712-.712h1.8v6.071Zm28.637,4.061a3.466,3.466,0,0,1-3.475,3.475H13.762a3.466,3.466,0,0,1-3.475-3.475V33.385a3.466,3.466,0,0,1,3.475-3.475H31.011a3.466,3.466,0,0,1,3.475,3.475Zm5.15-4.731a.706.706,0,0,1-.712.712h-1.8V37.446h1.8a.706.706,0,0,1,.712.712Z" transform="translate(0 -10.987)"/><circle class="l" cx="2.763" cy="2.763" r="2.763" transform="translate(14.348 23.026)"/><circle class="l" cx="2.763" cy="2.763" r="2.763" transform="translate(24.899 23.026)"/><path class="l" d="M46.851,67.3H37.473a.935.935,0,0,0-.921,1.172,5.472,5.472,0,0,0,5.61,4.522,5.472,5.472,0,0,0,5.61-4.522A.921.921,0,0,0,46.851,67.3Z" transform="translate(-19.775 -35.984)"/><path class="l" d="M48.14,10.591a1.349,1.349,0,0,0,1.34-1.34V6.74a1.34,1.34,0,0,0-2.679,0V9.294A1.341,1.341,0,0,0,48.14,10.591Z" transform="translate(-25.753 0)"/><path class="l" d="M31.157,17.344,33.376,18.6a1.229,1.229,0,0,0,.67.167,1.32,1.32,0,0,0,1.13-.67,1.284,1.284,0,0,0-.5-1.8l-2.219-1.256a1.284,1.284,0,0,0-1.8.5A1.319,1.319,0,0,0,31.157,17.344Z" transform="translate(-16.264 -5.497)"/><path class="l" d="M59.31,18.806a1.326,1.326,0,0,0,.67-.167L62.2,17.383a1.322,1.322,0,1,0-1.3-2.3l-2.219,1.256a1.357,1.357,0,0,0-.5,1.8A1.238,1.238,0,0,0,59.31,18.806Z" transform="translate(-32.276 -5.535)"/></g><g transform="translate(80.093 84.835)"><g transform="translate(40.907 2892.743)"><g transform="translate(0 0)"><g transform="translate(3.45)"><circle class="l" cx="2.728" cy="2.728" r="2.728" transform="translate(0.392 0.398)"/><path class="l" d="M127.266,524.39a2.344,2.344,0,0,1-1.511,2.185,2.334,2.334,0,1,1,1.511-2.185.4.4,0,0,0,.793,0,3.171,3.171,0,0,0-2.07-2.942,3.124,3.124,0,1,0,2.07,2.938A.4.4,0,0,0,127.266,524.39Z" transform="translate(-121.815 -521.264)"/></g><g transform="translate(0 6.716)"><path class="l" d="M57.15,706.263H44.8V706.1a5.3,5.3,0,0,1,5.3-5.3h1.756a5.3,5.3,0,0,1,5.3,5.3Z" transform="translate(-44.404 -700.398)"/><path class="l" d="M47.546,696.125H35.2l.4.4a5.044,5.044,0,0,1,1.17-3.346,4.934,4.934,0,0,1,3.259-1.7c.733-.063,1.487-.024,2.224-.02a4.943,4.943,0,0,1,3.414,1.38,5.034,5.034,0,0,1,1.491,3.687.4.4,0,0,0,.793,0,5.889,5.889,0,0,0-1.368-3.87,5.716,5.716,0,0,0-3.719-1.959,12,12,0,0,0-1.308-.036c-.369,0-.737,0-1.11,0a5.723,5.723,0,0,0-3.953,1.649,5.833,5.833,0,0,0-1.685,4.211.4.4,0,0,0,.4.4h12.35A.4.4,0,0,0,47.546,696.125Z" transform="translate(-34.8 -690.655)"/></g></g><g transform="translate(24.696 0)"><g transform="translate(3.45)"><circle class="l" cx="2.728" cy="2.728" r="2.728" transform="translate(0.392 0.398)"/><path class="l" d="M750.166,524.39a2.344,2.344,0,0,1-1.511,2.185,2.334,2.334,0,1,1,1.511-2.185.4.4,0,0,0,.793,0,3.171,3.171,0,0,0-2.07-2.942,3.124,3.124,0,1,0,2.07,2.938A.4.4,0,0,0,750.166,524.39Z" transform="translate(-744.715 -521.264)"/></g><g transform="translate(0 6.716)"><path class="l" d="M680.05,706.263H667.7V706.1a5.3,5.3,0,0,1,5.3-5.3h1.756a5.3,5.3,0,0,1,5.3,5.3Z" transform="translate(-667.304 -700.398)"/><path class="l" d="M670.446,696.125H658.1l.4.4a5.044,5.044,0,0,1,1.17-3.346,4.934,4.934,0,0,1,3.259-1.7c.733-.063,1.487-.024,2.224-.02a4.943,4.943,0,0,1,3.414,1.38,5.033,5.033,0,0,1,1.491,3.687.4.4,0,0,0,.793,0,5.889,5.889,0,0,0-1.368-3.87,5.716,5.716,0,0,0-3.719-1.959,12,12,0,0,0-1.308-.036c-.369,0-.737,0-1.11,0a5.723,5.723,0,0,0-3.953,1.649,5.832,5.832,0,0,0-1.685,4.211.4.4,0,0,0,.4.4h12.35A.4.4,0,0,0,670.446,696.125Z" transform="translate(-657.7 -690.655)"/></g></g></g><g transform="translate(53.463 2875.165)"><g transform="translate(3.331 0)"><circle class="l" cx="2.64" cy="2.64" r="2.64" transform="translate(0.388 0.397)"/><path class="l" d="M440.8,80.931a2.241,2.241,0,1,1-1.828-2.208,2.262,2.262,0,0,1,1.828,2.208.4.4,0,0,0,.793,0,3.083,3.083,0,0,0-2-2.855,3.036,3.036,0,0,0-3.64,4.409,3.036,3.036,0,0,0,5.642-1.558A.4.4,0,0,0,440.8,80.931Z" transform="translate(-435.526 -77.894)"/></g><g transform="translate(0 6.492)"><path class="l" d="M373.342,257.085H361.4v-.163a5.12,5.12,0,0,1,5.122-5.122h1.7a5.12,5.12,0,0,1,5.122,5.122Z" transform="translate(-361.008 -251.397)"/><path class="l" d="M363.834,246.933H351.892l.4.4a4.864,4.864,0,0,1,1.122-3.219,4.741,4.741,0,0,1,3.164-1.649c.706-.059,1.431-.024,2.137-.02A4.745,4.745,0,0,1,362,243.769a4.857,4.857,0,0,1,1.439,3.556.4.4,0,0,0,.793,0,5.713,5.713,0,0,0-1.3-3.719,5.552,5.552,0,0,0-3.612-1.927,10.561,10.561,0,0,0-1.277-.036c-.361,0-.718,0-1.078,0a5.567,5.567,0,0,0-3.81,1.578,5.658,5.658,0,0,0-1.653,4.1.4.4,0,0,0,.4.4h11.942A.393.393,0,0,0,363.834,246.933Z" transform="translate(-351.5 -241.642)"/></g></g><g transform="translate(46.45 2883.097)"><g transform="translate(0 0.326)"><path class="l" d="M175.779,294.205c.1-.285.194-.571.305-.852l.083-.2c-.028.063.04-.087.052-.115.063-.143.127-.281.194-.42a13.146,13.146,0,0,1,.9-1.578c.163-.246.337-.488.515-.726,0-.008.067-.087.02-.024a.872.872,0,0,0,.055-.071c.044-.056.087-.111.135-.167.1-.119.194-.234.3-.349a13.771,13.771,0,0,1,1.273-1.273c.123-.107.246-.214.373-.313.063-.052.127-.1.19-.151-.055.044.1-.075.123-.091.277-.206.563-.4.856-.591a.594.594,0,1,0-.6-1.027,14.237,14.237,0,0,0-5.067,5.574,14.92,14.92,0,0,0-.848,2.07.6.6,0,0,0,.416.733.625.625,0,0,0,.73-.428Z" transform="translate(-174.61 -286.176)"/></g><g transform="translate(6.615 23.566)"><path class="l" d="M354.532,872.422a12.858,12.858,0,0,1-9.575,1.241,12.5,12.5,0,0,1-2.6-1.007.594.594,0,1,0-.6,1.027,13.926,13.926,0,0,0,13.373-.234.594.594,0,0,0-.6-1.027Z" transform="translate(-341.467 -872.344)"/></g><g transform="translate(19.389 0)"><path class="l" d="M663.95,279.049c.281.163.555.329.825.511.127.083.25.17.373.258.056.04.115.083.17.127l.1.071c.155.115-.04-.032.048.036a13.858,13.858,0,0,1,1.411,1.273c.222.234.44.472.646.722.052.063.1.123.155.186a.871.871,0,0,1,.056.071c.008.008.083.107.048.059.056.067.182.242.262.353a14.03,14.03,0,0,1,1,1.629,11.894,11.894,0,0,1,.817,1.955.61.61,0,0,0,.733.416.6.6,0,0,0,.416-.733,14.175,14.175,0,0,0-4.532-6.641,14.826,14.826,0,0,0-1.919-1.32.6.6,0,0,0-.813.214.591.591,0,0,0,.206.813Z" transform="translate(-663.659 -277.944)"/></g></g><g transform="translate(53.75 2890.498)"><g transform="translate(0 0)"><path class="l" d="M369.694,470.685c0,.139,0,.278-.016.416,0,.063-.012.127-.016.19,0,.024-.016.119,0,0-.008.044-.012.091-.02.135a5.207,5.207,0,0,1-.19.781c-.04.127-.087.25-.135.373.04-.1-.02.044-.036.075-.032.071-.067.143-.1.214a5.462,5.462,0,0,1-.4.67l-.059.083c0,.008-.056.075-.016.024s-.063.079-.083.1c-.087.107-.182.21-.278.309s-.182.182-.281.27c-.044.04-.091.079-.139.119l-.079.067c-.012.008-.123.1-.063.052s-.016.012-.024.016l-.083.06-.17.119c-.111.071-.222.139-.337.2s-.23.123-.349.178c-.032.016-.063.028-.1.044-.008,0-.087.036-.028.012s-.036.012-.052.02l-.123.048a5.147,5.147,0,0,1-.769.214c-.071.016-.143.028-.214.04l-.079.012c-.1.016.091-.012,0,0-.139.016-.273.028-.412.032a6.182,6.182,0,0,1-.856-.032c-.1-.012.091.016,0,0l-.079-.012c-.071-.012-.143-.024-.214-.04-.139-.028-.278-.063-.416-.1-.119-.036-.238-.071-.353-.115-.067-.024-.131-.052-.2-.075.1.04-.063-.028-.1-.044a5.5,5.5,0,0,1-.686-.381c-.06-.04-.115-.075-.17-.119-.024-.016-.151-.111-.107-.075s-.079-.063-.1-.083c-.06-.052-.119-.1-.178-.155a5.52,5.52,0,0,1-.539-.559c-.04-.048-.075-.1-.115-.143.071.091-.04-.059-.063-.087-.079-.115-.155-.23-.226-.349q-.1-.155-.178-.321c-.032-.063-.063-.127-.091-.19-.016-.032-.087-.206-.044-.1a5.621,5.621,0,0,1-.246-.757c-.032-.131-.059-.262-.079-.4,0-.036-.028-.2-.012-.083-.008-.083-.016-.163-.024-.246a5.662,5.662,0,0,1,0-.86c0-.063.012-.127.02-.19s0,.012,0,.024c0-.036.012-.071.016-.107.024-.143.052-.281.087-.424a5.621,5.621,0,0,1,.246-.757c-.044.115.036-.075.044-.1.024-.055.052-.111.079-.167.063-.123.131-.246.2-.365.063-.1.131-.206.2-.305l.06-.083c.008-.012.075-.1.032-.044s.012-.016.016-.024c.028-.032.056-.067.083-.1a5.5,5.5,0,0,1,.559-.579c.091-.079.182-.159.278-.234-.1.075.067-.048.087-.063l.17-.119a5.486,5.486,0,0,1,.686-.381c.024-.012.214-.091.1-.044.055-.024.115-.044.174-.067q.2-.071.4-.131c.131-.036.258-.067.392-.1l.186-.036.079-.012c.17-.028-.067.008.032,0a5.622,5.622,0,0,1,.856-.032c.127,0,.258.016.385.028s.028,0,0,0c.036,0,.071.012.107.016.071.012.143.024.214.04a5.687,5.687,0,0,1,.8.226c.059.02.115.044.174.067-.107-.044.044.02.075.036.127.059.254.123.373.19s.226.131.337.2c.052.032.1.067.151.1.024.016.2.151.111.075a5.525,5.525,0,0,1,.579.519c.091.1.178.19.262.289.04.048.075.1.115.143-.071-.091.044.06.063.087a5.839,5.839,0,0,1,.416.694c.028.055.056.111.079.167.012.024.091.214.044.1.048.123.1.246.135.373a5.224,5.224,0,0,1,.194.809c0,.036.012.071.016.107,0-.008-.012-.1,0-.024s.012.127.02.19c0,.147.008.293.008.444a.595.595,0,1,0,1.189,0,6.07,6.07,0,0,0-12.124-.44,6.058,6.058,0,0,0,.852,3.576,6.068,6.068,0,0,0,11.188-2.149,7.369,7.369,0,0,0,.083-.983.595.595,0,0,0-1.189,0Z" transform="translate(-358.741 -464.619)"/></g></g><g transform="translate(56.474 2890.541)"><path class="l" d="M432.965,471.768a8.657,8.657,0,0,1-.46,2.938c-.036.107-.075.21-.119.313-.063.167.048-.1-.024.059-.024.048-.044.1-.067.143a5.3,5.3,0,0,1-.289.531c-.052.079-.1.155-.159.234-.087.127.079-.091-.016.024-.028.032-.056.067-.083.1-.055.063-.115.123-.174.182-.036.032-.234.186-.1.087-.063.044-.123.087-.19.127a.779.779,0,0,1-.1.052c-.044.024-.119.091.008,0a.716.716,0,0,1-.2.067c-.028.008-.056.012-.087.02-.143.032.115,0,0,0a1.857,1.857,0,0,0-.21,0c-.123,0,.139.036.02,0a.977.977,0,0,1-.1-.024.61.61,0,0,1-.2-.067c.115.083.071.032.028.008s-.075-.04-.115-.063c-.067-.04-.127-.083-.19-.127.143.1-.059-.055-.1-.087-.059-.059-.119-.119-.174-.182a.82.82,0,0,1-.056-.067l-.055-.067q.071.089.012.012a5.621,5.621,0,0,1-.309-.488c-.048-.091-.1-.182-.139-.274a1.013,1.013,0,0,1-.044-.1c-.016-.032-.028-.063-.044-.1.024.059.024.055,0-.008a8.428,8.428,0,0,1-.571-2.835,10.883,10.883,0,0,1,.063-1.645,9.427,9.427,0,0,1,.285-1.38c.063-.218.143-.432.222-.646.063-.167-.048.1.024-.059.016-.032.028-.063.044-.1.052-.111.1-.218.163-.321a4.823,4.823,0,0,1,.309-.488c.087-.127-.079.091.016-.024l.056-.067a2.088,2.088,0,0,1,.206-.214c.036-.032.238-.19.1-.087.063-.044.123-.087.19-.127.024-.016.135-.091.163-.083-.052-.012-.115.04-.008.008l.135-.04a.978.978,0,0,0,.1-.024c.119-.032-.143,0-.02,0a1.828,1.828,0,0,0,.21,0c.119,0-.111-.028-.036-.008a.672.672,0,0,0,.087.016.7.7,0,0,1,.238.075c-.127-.091-.052-.024-.008,0l.131.071c.032.02.063.044.1.063a.6.6,0,0,0,.063.044c-.063-.048-.075-.06-.044-.032.131.139.274.258.4.4.1.115-.071-.1.016.024l.107.155c.056.079.1.163.151.246.059.1.115.206.167.313.024.048.044.1.067.143.016.032.028.063.044.1-.024-.059-.024-.055,0,.008a8.656,8.656,0,0,1,.436,1.542,6.8,6.8,0,0,1,.1.749c.024.317.036.638.036.959a.595.595,0,1,0,1.189,0,9.924,9.924,0,0,0-.551-3.386,4.7,4.7,0,0,0-1.574-2.288,2.126,2.126,0,0,0-2.24-.131,3.96,3.96,0,0,0-1.614,1.99,9.575,9.575,0,0,0-.714,3.358,10.351,10.351,0,0,0,.424,3.485,5.175,5.175,0,0,0,1.4,2.41,2.194,2.194,0,0,0,2.208.5,3.483,3.483,0,0,0,1.78-1.8,8.923,8.923,0,0,0,.841-3.255c.024-.3.036-.595.036-.9a.6.6,0,0,0-.595-.595A.62.62,0,0,0,432.965,471.768Z" transform="translate(-427.452 -465.707)"/></g><g transform="translate(59.231 2890.496)"><path class="l" d="M497,465.18v10.51a.595.595,0,0,0,1.189,0V465.18a.595.595,0,1,0-1.189,0Z" transform="translate(-497 -464.585)"/></g><g transform="translate(54.592 2893.169)"><g transform="translate(0 0)"><path class="l" d="M380.58,533.189h9.277a.595.595,0,1,0,0-1.189H380.58a.595.595,0,1,0,0,1.189Z" transform="translate(-379.985 -532)"/></g></g><g transform="translate(53.76 2895.984)"><path class="l" d="M359.58,604.189h10.939a.595.595,0,0,0,0-1.189H359.58a.595.595,0,0,0,0,1.189Z" transform="translate(-358.985 -603)"/></g><g transform="translate(54.513 2898.759)"><path class="l" d="M378.58,674.189h9.436a.595.595,0,0,0,0-1.189H378.58a.595.595,0,0,0,0,1.189Z" transform="translate(-377.985 -673)"/></g></g><path class="l" d="M38.058,19.608V14.5a4.677,4.677,0,1,0-4.05,0v2.667H32.6a.678.678,0,0,0-.678.678v2s0,0,0,.007c-4.47.742-7.416,2.654-7.416,5V40.417c0,3.042,4.956,5.336,11.527,5.336S47.56,43.459,47.56,40.417V24.861C47.56,22.163,43.678,20.04,38.058,19.608Zm-11.744,7.55c1.816,1.537,5.445,2.565,9.719,2.565s7.9-1.027,9.719-2.565v4.029c-1.216,1.524-4.817,2.86-9.719,2.86s-8.5-1.336-9.719-2.86Zm0,5.285c1.865,1.507,5.477,2.508,9.719,2.508s7.853-1,9.719-2.508v3.887c-1.216,1.524-4.817,2.86-9.719,2.86s-8.5-1.336-9.719-2.86Zm12.151-8.089c-.037.022-.071.044-.115.066v-.671q.064.031.115.062Zm-.341.16c-.039.014-.073.03-.115.044v-.947c.043.014.077.028.115.043Zm-.341.108c-.047.013-.087.027-.137.039V23.513l.137.033Zm-4.505-6.094h1.408a.678.678,0,0,0,.678-.678v-3.8a.679.679,0,0,0-.449-.638,3.321,3.321,0,1,1,2.236,0,.679.679,0,0,0-.449.638L36.74,24.8c-.221.019-1.322.015-1.6-.014v-.959a.452.452,0,0,0-.452-.452h-2.2V22.6h2.2a.452.452,0,0,0,.452-.452l.018-2.294a.678.678,0,0,0-.678-.678h-1.2v-.644Zm-2.372,5.9.146-.26h.027v.26Zm.4-.26h.123v.26H31.3Zm.348,0h.1c.007.006.016.01.024.016v.245h-.123Zm.349.1c.011,0,.021.007.033.007h.09v.153H32v-.16Zm.349.007h.123v.153H32.35Zm.349,0h.123v.153H32.7Zm.349,0h.123v.153h-.123Zm.349,0h.123v.153H33.4Zm.348,0h.123v.215c-.031-.013-.065-.025-.094-.039a.207.207,0,0,0-.029-.007Zm.349,0h.141v.343c-.049-.014-.095-.029-.141-.044Zm.142-2.872V21.8h-2.2c-.25,0-.452.1-.452.346v1.572h-.663a.226.226,0,0,0-.2.116l-.4.713a.226.226,0,0,0,.2.336h3.106a6.132,6.132,0,0,0,2.408.4c1.561,0,3.141-.411,3.141-1.2,0-.458-.558-.829-1.528-1.035V21.39c4.857.321,8.107,2.036,8.107,3.472v.982c-1.082,1.567-4.712,2.975-9.719,2.975s-8.637-1.408-9.719-2.975v-.982C26.315,23.444,29.481,21.756,34.234,21.4Zm1.8,22.54c-5.562,0-9.719-1.862-9.719-3.528V37.587c1.865,1.507,5.477,2.508,9.719,2.508s7.853-1,9.719-2.508v2.829C45.752,42.081,41.6,43.944,36.033,43.944Zm2.315-33.651a2.315,2.315,0,1,0-2.315,2.315A2.318,2.318,0,0,0,38.348,10.293Zm-3.726,0A1.411,1.411,0,1,1,36.033,11.7,1.412,1.412,0,0,1,34.622,10.293Z" transform="translate(241.494 3272.384)"/><path class="l" d="M45.676,3.343H19.421a1.145,1.145,0,0,0-1.145,1.145V40.65a1.145,1.145,0,0,0,1.145,1.145H34.456V44.93a1.144,1.144,0,0,0,1.451,1.1l4.122-1.143a1.145,1.145,0,0,0,.839-1.1V41.795h4.809a1.145,1.145,0,0,0,1.145-1.145V4.488A1.145,1.145,0,0,0,45.676,3.343ZM44.531,36.285H25.03V5.633h19.5ZM20.566,5.633h2.175V36.285H20.566Zm0,33.873v-.93H34.456v.93Zm16.181,3.919V38.575h1.832v4.341Zm4.121-3.919v-.93h3.664v.93Z" transform="translate(1609.724 3273.657)"/></g></svg>