<svg xmlns="http://www.w3.org/2000/svg" width="1701" height="962" viewBox="0 0 1701 962"><defs><style>.a,.k{fill:#4e4e4e;}.a{font-size:28px;font-family:HelveticaNeue-Medium, Helvetica Neue;font-weight:500;}.b{fill:#1d4776;}.c{fill:#e62a38;}.d,.e,.f,.g,.h,.j{fill:#fff;}.d{font-size:62px;font-family:HelveticaNeue-Bold, Helvetica Neue;font-weight:700;}.e{font-size:16px;}.e,.h,.j,.k{font-family:Montserrat-Regular, Montserrat;}.g{fill-rule:evenodd;}.h,.k{font-size:14px;}.i,.l{fill:none;}.j{font-size:12px;}.l{stroke:#b7b7b7;stroke-width:2px;}</style></defs><g transform="translate(-180 -2568)"><text class="a" transform="translate(1463 2648)"><tspan x="0" y="27">Data Management</tspan></text><text class="a" transform="translate(180 2920)"><tspan x="0" y="27">Experience</tspan></text><text class="a" transform="translate(1608 3417)"><tspan x="0" y="27">Architectur</tspan></text><circle class="b" cx="481" cy="481" r="481" transform="translate(479 2568)"/><circle class="c" cx="351" cy="351" r="351" transform="translate(609 2698)"/><circle class="b" cx="221" cy="221" r="221" transform="translate(739 2828)"/><circle class="c" cx="90" cy="90" r="90" transform="translate(870 2959)"/><text class="d" transform="translate(919 3072)"><tspan x="0" y="0">API</tspan></text><text class="e" transform="translate(995 2634)"><tspan x="-28.408" y="0">Design</tspan><tspan x="-35.392" y="24">Thinking</tspan></text><g transform="translate(615.078 -439)"><path class="f" d="M48.631,28.2a1.029,1.029,0,0,0-1.126.751l-3.1,15.956A81.323,81.323,0,0,0,43,59.923a.939.939,0,0,0,1.877,0,78.348,78.348,0,0,1,1.408-14.736l3.1-15.956A.93.93,0,0,0,48.631,28.2Z" transform="translate(272.415 3049.33)"/><path class="f" d="M31.4,47.835a16.434,16.434,0,0,1-4.411,1.877S12.915,53.56,12.727,53.56a2.324,2.324,0,0,1-2.346-2.346V43.236a.887.887,0,0,0-.939-.939H4.562a1.548,1.548,0,0,1-1.408-.845,1.792,1.792,0,0,1,0-1.689L9.442,28.5a9.272,9.272,0,0,0,1.032-4.13V20.8A17.825,17.825,0,0,1,28.214,2.877,17.031,17.031,0,0,1,39.289,6.819,1,1,0,0,0,40.6,6.725a1,1,0,0,0-.094-1.314A18.82,18.82,0,0,0,28.214,1,19.849,19.849,0,0,0,8.5,20.8V24.37a6.848,6.848,0,0,1-.845,3.285L1.371,38.918a3.476,3.476,0,0,0,.094,3.567,3.626,3.626,0,0,0,3.1,1.689H8.5v7.039a4.206,4.206,0,0,0,4.224,4.224c.375,0,7.039-1.783,7.039-1.783v4.6a.939.939,0,0,0,1.877,0V53.184l5.819-1.6a18.889,18.889,0,0,0,4.881-2.159.923.923,0,0,0,.282-1.314A.872.872,0,0,0,31.4,47.835Z" transform="translate(275 3051)"/><path class="f" d="M25.53,5.6a16.174,16.174,0,0,0-1.971.657A.976.976,0,0,0,23,7.473a1.032,1.032,0,0,0,.939.563c.094,0,1.6-.469,2.159-.657a.891.891,0,0,0,.657-1.126A.92.92,0,0,0,25.53,5.6Z" transform="translate(273.648 3050.721)"/><path class="f" d="M19.007,8.784A16.17,16.17,0,0,0,13,21.267a.939.939,0,1,0,1.877,0,14.4,14.4,0,0,1,5.256-11.075,1.009,1.009,0,0,0,.188-1.314A.912.912,0,0,0,19.007,8.784Z" transform="translate(274.258 3050.537)"/><path class="f" d="M59.663,5.036,57.035,2.408a4.646,4.646,0,0,0-6.664,0L33.2,19.584a.73.73,0,0,0-.282.563L31.6,29.439a1.011,1.011,0,0,0,1.032,1.032l9.292-1.314a.983.983,0,0,0,.563-.282l2.253-2.253a.929.929,0,0,0-1.314-1.314l-1.22,1.22-.657-1.971,12.2-12.2,1.314,1.314-8.916,8.916A.929.929,0,1,0,47.462,23.9l12.3-12.3A4.5,4.5,0,0,0,59.663,5.036ZM33.571,28.5,34.6,21.555l2.253.751v1.971a.887.887,0,0,0,.939.939h1.971l.751,2.253Zm6.476-5.162H38.733V22.024l8.259-8.259a.929.929,0,0,0-1.314-1.314l-8.072,8.072-1.971-.657L48.4,7.007l1.314,1.314L48.682,9.447a.907.907,0,0,0,0,1.314.969.969,0,0,0,1.314,0l1.126-1.126,1.314,1.314ZM56.378,12.357,49.714,5.693l1.314-1.314,6.664,6.664Zm2.534-2.816L52.53,3.159a2.887,2.887,0,0,1,3.191.563L58.349,6.35A2.919,2.919,0,0,1,58.912,9.541Z" transform="translate(273.115 3051)"/></g><text class="e" transform="translate(616 2803.854)"><tspan x="-23.08" y="0">UX/UI</tspan><tspan x="-28.888" y="24">Zero UI</tspan></text><text class="e" transform="translate(992 3460)"><tspan x="-40.352" y="0">Emerging</tspan><tspan x="-40.512" y="24">Payments</tspan></text><g transform="translate(888 3437)"><path class="f" d="M56.282,36.017a4.383,4.383,0,0,0-4.073-.466L41.628,39.664a4.539,4.539,0,0,0-4.349-3.294H23.959L22.5,35.2a11.275,11.275,0,0,0-14.093,0L8.17,35.4a.9.9,0,0,0-.9-.847H.909A.909.909,0,0,0,0,35.46V57.282a.909.909,0,0,0,.909.909H7.274a.909.909,0,0,0,.909-.909v-.909H29.1a.909.909,0,0,0,.4-.091l26.22-12.688a4.391,4.391,0,0,0,.566-7.578ZM6.365,56.373H1.818v-20H6.365ZM54.918,41.958l-26.031,12.6H8.183V37.716l1.364-1.091a9.456,9.456,0,0,1,11.82,0l1.707,1.364a.909.909,0,0,0,.566.2H37.279a2.728,2.728,0,0,1,0,5.455H24.549a.909.909,0,0,0,0,1.818H37.279a4.539,4.539,0,0,0,4.481-3.9l11.108-4.32a2.572,2.572,0,0,1,2.05,4.714ZM24.286,34.04a15.283,15.283,0,0,1-1.555-6.763,15.457,15.457,0,1,1,29.737,5.915.909.909,0,0,1-1.759-.314.958.958,0,0,1,.069-.358,13.639,13.639,0,1,0-24.856.723.909.909,0,0,1-.418,1.215.89.89,0,0,1-.4.091.909.909,0,0,1-.817-.509Zm12.993-.4v-.951a5.63,5.63,0,0,1-1.751-.9.91.91,0,0,1,1.115-1.438c.016.013,1.759,1.328,2.607.322a1.161,1.161,0,0,0,.333-1.065,2.671,2.671,0,0,0-1.715-1.482A4.355,4.355,0,0,1,35.034,25.4a2.965,2.965,0,0,1,.7-2.695,2.765,2.765,0,0,1,1.542-.954v-.839a.909.909,0,0,1,1.818,0v.949a5.637,5.637,0,0,1,1.751.9A.909.909,0,1,1,39.734,24.2c-.015-.011-1.758-1.328-2.6-.319a1.161,1.161,0,0,0-.333,1.065,2.671,2.671,0,0,0,1.715,1.482,4.354,4.354,0,0,1,2.833,2.728,2.964,2.964,0,0,1-.7,2.694A2.761,2.761,0,0,1,39.1,32.8v.841a.909.909,0,0,1-1.818,0Zm0-24.549V.909a.909.909,0,0,1,1.818,0V9.092a.909.909,0,0,1-1.818,0Zm3.637,0V4.546a.909.909,0,0,1,1.818,0V9.092a.909.909,0,0,1-1.818,0Zm-7.274,0V4.546a.909.909,0,0,1,1.818,0V9.092a.909.909,0,0,1-1.818,0Z"/></g><text class="e" transform="translate(1238.5 2749.191)"><tspan x="-52.608" y="0">Conversation</tspan><tspan x="-29.456" y="24">System</tspan></text><text class="e" transform="translate(1362 2970)"><tspan x="-31.448" y="0">UX with</tspan><tspan x="-25.688" y="24">AR/VR</tspan></text><g transform="translate(-281.316 -712)"><g transform="translate(1629.076 3611.143)"><path class="f" d="M59.752,46.125l-.092-.66H58.415a5.8,5.8,0,0,0-.1-1.712,3.532,3.532,0,0,0-.353-.891c-.23-.468-.215-.5-.138-.622a5.016,5.016,0,0,0,.445-3.786,4.265,4.265,0,0,0-3.594-3.21,3.212,3.212,0,0,0-.468-.038c.215-1.482-.591-2.826-2.3-3.8-1.59-.906-4.354-1.144-5.943.177-1.6-1.305-4.415-1.067-5.974-.177-1.712.975-2.519,2.319-2.3,3.8a3.212,3.212,0,0,0-.468.038,4.265,4.265,0,0,0-3.594,3.21,5.016,5.016,0,0,0,.445,3.786c.077.123.092.154-.138.622a3.532,3.532,0,0,0-.353.891,5.8,5.8,0,0,0-.1,1.712h-1.7l-.092.66a14.173,14.173,0,1,0,28.074,0ZM46.728,39.544a2.943,2.943,0,0,0,.868.5,2.708,2.708,0,0,0,.921.161,2.967,2.967,0,0,0,1.405-.361.764.764,0,0,0-.7-1.359,1.344,1.344,0,0,1-1.1.115,3.121,3.121,0,0,1-1.4-1.513V32.978a2.874,2.874,0,0,1,2.258-.776,3.554,3.554,0,0,0-.806,3.287.765.765,0,0,0,.729.53.856.856,0,0,0,.238-.038.769.769,0,0,0,.491-.968c-.346-1.06.814-2.188,1.113-2.457a2.257,2.257,0,0,1,.392.177c1.843,1.052,1.643,2.158,1.436,2.7a4.163,4.163,0,0,0-2.242,1.835.764.764,0,1,0,1.313.783,2.832,2.832,0,0,1,5.129.776,3.508,3.508,0,0,1-.261,2.6,1.972,1.972,0,0,0,.077,2.119,2.92,2.92,0,0,1,.223.53,4.069,4.069,0,0,1,.054,1.367v.015H46.728ZM35.371,41.433a3.508,3.508,0,0,1-.261-2.6,2.832,2.832,0,0,1,5.129-.776.764.764,0,1,0,1.313-.783,4.163,4.163,0,0,0-2.242-1.835c-.207-.545-.407-1.651,1.436-2.7a1.885,1.885,0,0,1,.376-.177c.292.253,1.467,1.382,1.113,2.457a.772.772,0,0,0,.491.968.856.856,0,0,0,.238.038.772.772,0,0,0,.729-.53,3.564,3.564,0,0,0-.806-3.294,2.963,2.963,0,0,1,2.3.776v5.736c-.092.269-.891.5-1.528.507a.768.768,0,0,0,.008,1.536h.008a4.988,4.988,0,0,0,1.513-.253v4.968H35.018v-.015a4.069,4.069,0,0,1,.054-1.367,2.919,2.919,0,0,1,.223-.53A1.988,1.988,0,0,0,35.371,41.433ZM54.653,57.006A12.639,12.639,0,0,1,33.121,47H58.308A12.5,12.5,0,0,1,54.653,57.006Z" transform="translate(-31.537 -30.657)"/><path class="f" d="M43.686,43.277a.77.77,0,0,1-.706.822c-.015,0-.131.008-.307.008a5.58,5.58,0,0,1-.729-.046,2.775,2.775,0,0,1-.745,1.766,2.618,2.618,0,0,1-1.935.729,3.934,3.934,0,0,1-.653-.054.768.768,0,0,1,.215-1.52,1.466,1.466,0,0,0,1.275-.23,1.58,1.58,0,0,0,.33-1.075,3.976,3.976,0,0,1-1.144-.722,4.02,4.02,0,0,1-1.267-3.072.77.77,0,0,1,.753-.783h.015a.774.774,0,0,1,.768.76,2.565,2.565,0,0,0,.753,1.95,3.877,3.877,0,0,0,2.549.76A.763.763,0,0,1,43.686,43.277Z" transform="translate(-33.026 -32.617)"/><path class="f" d="M60.978,45.642a.757.757,0,0,1-.653.86,3.934,3.934,0,0,1-.653.054,2.618,2.618,0,0,1-1.935-.729,2.775,2.775,0,0,1-.745-1.766,5.581,5.581,0,0,1-.729.046c-.177,0-.292-.008-.307-.008a.773.773,0,0,1-.706-.829.762.762,0,0,1,.829-.7s.069.008.177.008a3.675,3.675,0,0,0,2.373-.768,2.543,2.543,0,0,0,.753-1.958.772.772,0,0,1,.768-.753h.015a.77.77,0,0,1,.753.783,4.02,4.02,0,0,1-1.267,3.072,3.976,3.976,0,0,1-1.144.722,1.58,1.58,0,0,0,.33,1.075,1.466,1.466,0,0,0,1.275.23A.766.766,0,0,1,60.978,45.642Z" transform="translate(-37.041 -32.617)"/></g><g transform="translate(1614.317 3643.399)"><path class="f" d="M28.453,73.29a.774.774,0,0,1-.614.9,11.814,11.814,0,0,0-1.221.284c-7.356,1.981-10.973,8.769-12.248,11.779-.369.875-.538,1.428-.545,1.451a.769.769,0,0,1-.737.553.742.742,0,0,1-.223-.031.77.77,0,0,1-.514-.96c.154-.507,3.832-12.486,15.212-14.59A.77.77,0,0,1,28.453,73.29Z" transform="translate(-12.317 -72.663)"/></g><g transform="translate(1656.041 3643.399)"><path class="f" d="M82.254,88.226a.742.742,0,0,1-.223.031.769.769,0,0,1-.737-.553c-.008-.023-.177-.576-.545-1.451-1.275-3.01-4.891-9.8-12.248-11.779a11.817,11.817,0,0,0-1.221-.284.774.774,0,0,1-.614-.9.762.762,0,0,1,.891-.614c11.38,2.1,15.058,14.083,15.212,14.59A.77.77,0,0,1,82.254,88.226Z" transform="translate(-66.653 -72.663)"/></g><g transform="translate(1629.331 3593)"><path class="f" d="M60.059,19.27a14.168,14.168,0,0,0-28.074,0l-.115.875h28.3Zm-26.408-.66a12.64,12.64,0,0,1,24.741,0Z" transform="translate(-31.87 -7.03)"/></g></g><text class="e" transform="translate(545 3078)"><tspan x="-26.52" y="0">Digital</tspan><tspan x="-41.296" y="24">Marketing</tspan></text><g transform="translate(507 2988.818)"><path class="f" d="M74.986,58.248a1.971,1.971,0,0,0-1.955-2.2H70.88V14.591a5.71,5.71,0,0,0-5.7-5.7H11.83a5.71,5.71,0,0,0-5.7,5.7v41.46H3.968a1.97,1.97,0,0,0-1.955,2.2,8.978,8.978,0,0,0,8.921,7.926H66.065A8.98,8.98,0,0,0,74.986,58.248ZM8.408,14.591a3.426,3.426,0,0,1,3.422-3.422H65.177A3.426,3.426,0,0,1,68.6,14.591v41.46H8.408Zm57.657,49.3H10.935a6.7,6.7,0,0,1-6.605-5.561H72.67A6.7,6.7,0,0,1,66.065,63.893Z" transform="translate(0)"/><path class="f" d="M62.851,13.608H11.729a1.141,1.141,0,0,0-1.141,1.141v36.4a1.141,1.141,0,0,0,1.141,1.141H62.851a1.141,1.141,0,0,0,1.141-1.141v-36.4A1.141,1.141,0,0,0,62.851,13.608Zm-1.141,36.4H12.87V15.889H61.711V50.005Z" transform="translate(1.208 0.664)"/><path class="f" d="M38.145,53.674H31.016a1.141,1.141,0,0,0,0,2.281h7.129a1.141,1.141,0,0,0,0-2.281Z" transform="translate(3.92 6.298)"/><path class="f" d="M27.663,43.087l2.344,3.626a2.916,2.916,0,1,0,4.961-3.066L32.8,40.287l.181-.11a42.984,42.984,0,0,1,12.252-1.784,3.144,3.144,0,0,0,3.838.417,3.179,3.179,0,0,0,1.053-4.366l-2.313-3.783a5.135,5.135,0,0,0-5.189-8.486l-2.313-3.782a3.107,3.107,0,0,0-1.954-1.425,3.161,3.161,0,0,0-3.793,3.965,43.03,43.03,0,0,1-7.17,10.106l-3.7,2.263a5.351,5.351,0,0,0,3.978,9.787Zm5.163,2.647a.643.643,0,0,1-.888-.234L29.767,42.14l1.083-.663,2.187,3.384A.633.633,0,0,1,32.826,45.734ZM46.558,25.593a2.856,2.856,0,0,1-.011,3.005l-2.669-4.364A2.854,2.854,0,0,1,46.558,25.593Zm-9.43-6.309a.88.88,0,0,1,.688-.1.85.85,0,0,1,.542.4h0c14.369,23.5.667,1.091,9.814,16.051a.9.9,0,0,1-1.527.935L36.831,20.513A.9.9,0,0,1,37.128,19.284Zm-1.251,4.043,7.83,12.806A44.975,44.975,0,0,0,32.9,37.814l-3.444-5.632A44.969,44.969,0,0,0,35.878,23.328Zm-11,11.919,2.752-1.683,3.209,5.248-2.751,1.683a3.076,3.076,0,1,1-3.209-5.248Z" transform="translate(2.688 1.123)"/></g><text class="e" transform="translate(1348 3214)"><tspan x="-37.264" y="0">Next Gen</tspan><tspan x="-31.784" y="22">Contact</tspan><tspan x="-25.816" y="44">center</tspan></text><path class="f" d="M54.376,50.8a1.073,1.073,0,0,0-1.047,1.047v4.467H20.594V18.481H53.329V22.6a1.047,1.047,0,0,0,2.094,0V14.712A6.226,6.226,0,0,0,49.211,8.5h-24.5A6.226,6.226,0,0,0,18.5,14.712V60.291A6.226,6.226,0,0,0,24.712,66.5H49.281a6.226,6.226,0,0,0,6.212-6.212V51.915A1.148,1.148,0,0,0,54.376,50.8Zm-29.664-40.2H49.281A4.126,4.126,0,0,1,53.4,14.712v1.675H20.594V14.712A4.082,4.082,0,0,1,24.712,10.594ZM49.281,64.339H24.712a4.126,4.126,0,0,1-4.118-4.118V58.406H53.329v1.815A4.067,4.067,0,0,1,49.281,64.339Zm-19.753-50.6a1.073,1.073,0,0,1,1.047-1.047H37.9a1.047,1.047,0,1,1,0,2.094H30.575A1.073,1.073,0,0,1,29.528,13.735Zm12.564,2.3a2.373,2.373,0,1,0-2.373-2.373A2.354,2.354,0,0,0,42.092,16.038Zm0-2.652a.279.279,0,1,1-.279.279A.3.3,0,0,1,42.092,13.386ZM39.858,58.964H34a2.3,2.3,0,0,0,0,4.607h5.863a2.324,2.324,0,0,0,2.3-2.3A2.279,2.279,0,0,0,39.858,58.964Zm0,2.513H34a.209.209,0,0,1,0-.419h5.863a.209.209,0,0,1,0,.419Zm9.423-30.153a5.1,5.1,0,1,0,5.1-5.025A5.064,5.064,0,0,0,49.281,31.324Zm8.166,0a3,3,0,1,1-3-2.932A2.965,2.965,0,0,1,57.448,31.324Zm-2.722,6.282H54.1a7.775,7.775,0,0,0-7.748,7.748v.838A1.073,1.073,0,0,0,47.4,47.238h14.03a1.073,1.073,0,0,0,1.047-1.047v-.838A7.775,7.775,0,0,0,54.725,37.606Zm-6.282,7.538A5.729,5.729,0,0,1,54.1,39.7h.628a5.634,5.634,0,0,1,5.654,5.444Z" transform="translate(1307.5 3126.497)"/><text class="e" transform="translate(1210 3395)"><tspan x="-28.616" y="0">Digital </tspan><tspan x="-18.92" y="22">Twin</tspan></text><path class="f" d="M47.6,13.26,28.653,2.634a2.464,2.464,0,0,0-2.389,0L7.318,13.26A2.375,2.375,0,0,0,6,15.4V38.22a2.458,2.458,0,0,0,1.236,2.142L26.182,50.987a2.464,2.464,0,0,0,2.389,0L47.517,40.361a2.458,2.458,0,0,0,1.236-2.142V15.4A2.235,2.235,0,0,0,47.6,13.26Zm-7.826-2.554,1.977,1.071L39.773,13.1Zm-6.59-3.624,3.789,2.142L33.183,11.2Zm-1.647,5.025-2.471,1.318-.824-.412a1.683,1.683,0,0,0-1.647.082L20.745,16.72A1.618,1.618,0,0,0,20,18.12v2.718l-4.119-2.306V14.825L21.733,11.2l.824.412a1.745,1.745,0,0,0,1.565,0l7.414-4.036Zm-9.885,6.1L27.5,14.578l.824.412a1.745,1.745,0,0,0,1.565,0l8.237-4.613v3.707l-4.2,2.636-.824-.412a1.683,1.683,0,0,0-1.647.082l-5.849,3.624a1.618,1.618,0,0,0-.741,1.4v2.142l-3.295-1.812V18.2Zm6.178,6.59a.748.748,0,0,1-.824,0l-.412-.247V21.5l5.849-3.624.824.412a1.683,1.683,0,0,0,1.647-.082l8.237-5.272v3.295ZM44.716,13.507l1.647.906-1.647.906ZM27.005,4.034a.748.748,0,0,1,.824,0l3.295,1.895L23.3,10.212,22.475,9.8a1.683,1.683,0,0,0-1.647.082l-5.849,3.624a1.618,1.618,0,0,0-.741,1.4v2.718L8.471,14.413ZM8.059,38.878a.865.865,0,0,1-.412-.741V20.674l2.8,1.4a.947.947,0,0,1,.494.741v.741A2.449,2.449,0,0,0,12.59,28.17a2.479,2.479,0,0,0,1.483-3.13,2.407,2.407,0,0,0-1.483-1.483v-.741a2.428,2.428,0,0,0-1.4-2.224l-3.542-1.73V15.814L26.182,26.193c.082.082.247.082.412.165v8.9l-7-3.789a.865.865,0,0,1-.412-.741V29.076a2.411,2.411,0,0,0,1.483-3.13,2.479,2.479,0,0,0-3.13-1.483,2.449,2.449,0,0,0,0,4.613v1.647a2.375,2.375,0,0,0,1.318,2.142l7.743,4.2v7.99l-7-3.789a.865.865,0,0,1-.412-.741V37.478a2.562,2.562,0,0,0-1.236-2.142l-2.883-1.647v-.329a2.471,2.471,0,1,0-2.471,2.471,2.658,2.658,0,0,0,1.73-.659L17.2,36.9a.865.865,0,0,1,.412.741v3.048a2.375,2.375,0,0,0,1.318,2.142l7.743,4.2v2.224ZM12.59,25.946a.824.824,0,1,1-.824-.824A.778.778,0,0,1,12.59,25.946Zm4.942.824a.824.824,0,1,1,.824.824A.778.778,0,0,1,17.532,26.77Zm-4.119,6.59a.824.824,0,1,1-.824-.824A.778.778,0,0,1,13.414,33.359Zm33.361,5.519L28.241,49.258V42.091l7.743-4.2A2.375,2.375,0,0,0,37.3,35.748V32.783a.792.792,0,0,1,.494-.741l3.624-1.812a2.447,2.447,0,1,0-.082-3.46,2.074,2.074,0,0,0-.741,1.647v.329l-3.624,1.812a2.481,2.481,0,0,0-1.4,2.224v2.965a.865.865,0,0,1-.412.741L28.241,40.2v-7.99l2.389-1.236a2.447,2.447,0,1,0-.082-3.46,2.658,2.658,0,0,0-.659,1.73v.329l-1.647.824V26.358c.165,0,.247-.082.412-.165L47.187,15.814V32.041L43.151,34.1a2.447,2.447,0,1,0,.082,3.46,2.658,2.658,0,0,0,.659-1.73V35.5l3.295-1.647v4.283A.865.865,0,0,1,46.775,38.878ZM42.245,28.417a.824.824,0,1,1,.824.824A.778.778,0,0,1,42.245,28.417Zm-10.709.824a.824.824,0,1,1,.824.824A.778.778,0,0,1,31.536,29.241Zm10.709,6.59a.824.824,0,1,1-.824-.824A.778.778,0,0,1,42.245,35.831Z" transform="translate(1183 3321.675)"/><text class="e" transform="translate(655.72 3325)"><tspan x="-26.52" y="0">Digital</tspan><tspan x="-48.752" y="24">Accessibility</tspan></text><g transform="translate(532 3223.851)"><g transform="translate(54 22.001)"><g transform="translate(1.939 35.375)"><rect class="f" width="3.392" height="12.115" transform="translate(15.992 10.176)"/><rect class="f" width="3.877" height="12.115" transform="translate(28.106 10.176)"/><rect class="f" width="25.684" height="3.877" transform="translate(11.146 20.353)"/><rect class="f" width="47.006" height="3.877" transform="translate(0 0)"/><ellipse class="f" cx="1.257" cy="1.256" rx="1.257" ry="1.256" transform="translate(22.531 4.95)"/></g><g transform="translate(0 0)"><path class="f" d="M150.809,89.378h-6.4a4.463,4.463,0,0,1-4.457-4.457V79.352a4.458,4.458,0,0,1,4.458-4.458h6.4a1.91,1.91,0,0,1,1.91,1.91l0,10.662a1.91,1.91,0,0,1-1.91,1.911Zm-6.4-10.663a.637.637,0,0,0-.637.637v5.567a.637.637,0,0,0,.637.637H148.9V78.715Z" transform="translate(-129.004 -68.157)"/><path class="f" d="M241,49.965a1.909,1.909,0,0,1-1.278-.49l-.735-.662a21.823,21.823,0,0,0-14.116-5.592l.083-3.82a25.651,25.651,0,0,1,14.134,4.622l0-16.081a25.636,25.636,0,0,1-14.134,4.617l-.082-3.82a21.807,21.807,0,0,0,14.113-5.587l.735-.661a1.91,1.91,0,0,1,3.188,1.42l0,24.143A1.91,1.91,0,0,1,241,49.965Z" transform="translate(-203.103 -22.001)"/><g transform="translate(15.617 19.309)"><path class="f" d="M184.9,188.021h-6.37a1.911,1.911,0,0,1-1.91-1.91l0-12.5h3.821l0,10.594h2.549l0-10.455h3.821l0,12.366a1.911,1.911,0,0,1-1.91,1.911Z" transform="translate(-176.617 -173.605)"/></g><path class="f" d="M103.544,141.19H55.91a1.91,1.91,0,0,1-1.91-1.91V105.91A1.91,1.91,0,0,1,55.91,104H66.857v3.821H57.821v29.548h43.812V107.821H91.89V104h11.654a1.91,1.91,0,0,1,1.91,1.91v33.369A1.91,1.91,0,0,1,103.544,141.19Z" transform="translate(-54 -93.557)"/></g></g></g><g transform="translate(620 2722)"><rect class="f" width="2" height="2" transform="translate(33 10)"/><rect class="f" width="2" height="2" transform="translate(29 10)"/><rect class="f" width="2" height="2" transform="translate(31 52)"/><rect class="f" width="2" height="2" transform="translate(11 22)"/><rect class="f" width="2" height="2" transform="translate(15 22)"/><rect class="f" width="2" height="2" transform="translate(19 22)"/><rect class="f" width="2" height="2" transform="translate(23 22)"/><rect class="f" width="2" height="2" transform="translate(27 22)"/><rect class="f" width="2" height="2" transform="translate(42 40)"/><rect class="f" width="8" height="2" transform="translate(46 40)"/><rect class="f" width="12" height="2" transform="translate(42 44)"/><rect class="f" width="12" height="2" transform="translate(42 48)"/><path class="f" d="M15,7V18H8a1,1,0,0,0-1,1v8a1,1,0,0,0,1,1h7V57a1,1,0,0,0,1,1H48a1,1,0,0,0,1-1V54h8a1,1,0,0,0,1-1V37a1,1,0,0,0-1-1H49V7a1,1,0,0,0-1-1H16A1,1,0,0,0,15,7ZM9,20H31v6H9ZM47,56H17V50H38v3a1,1,0,0,0,1,1h8Zm9-4H40V38H56ZM39,36a1,1,0,0,0-1,1V48H17V28H32a1,1,0,0,0,1-1V19a1,1,0,0,0-1-1H17V16H47V36ZM47,8v6H17V8Z"/><path class="f" d="M32,31H28a1,1,0,0,0-1,1v4a1,1,0,0,0,1,1h4a1,1,0,0,0,1-1V32A1,1,0,0,0,32,31Zm-1,4H29V33h2Z"/><path class="f" d="M20,37h4a1,1,0,0,0,1-1V32a1,1,0,0,0-1-1H20a1,1,0,0,0-1,1v4A1,1,0,0,0,20,37Zm1-4h2v2H21Z"/><path class="f" d="M42.793,24.855a4,4,0,1,0-5.586,0A5,5,0,0,0,35,29v4a1,1,0,0,0,1,1h8a1,1,0,0,0,1-1V29a5,5,0,0,0-2.207-4.145ZM38,22a2,2,0,1,1,2,2A2,2,0,0,1,38,22Zm5,10H37V29a3,3,0,0,1,6,0Z"/><rect class="f" width="2" height="2" transform="translate(19 39)"/><rect class="f" width="10" height="2" transform="translate(23 39)"/><rect class="f" width="14" height="2" transform="translate(19 43)"/><rect class="f" width="20" height="2" transform="translate(26 60)"/><rect class="f" width="2" height="16" transform="translate(11 31)"/><path class="f" d="M53,6a4,4,0,0,0-4-4H36V4H49a2,2,0,0,1,2,2V22h2Z"/><rect class="f" width="2" height="2" transform="translate(51 24)"/></g><text class="e" transform="translate(1094 2809)"><tspan x="-35.712" y="0">Adaptive</tspan><tspan x="-31.432" y="24">security</tspan></text><g transform="translate(1065 2740)"><g transform="translate(8)"><g transform="translate(0)"><path class="g" d="M50.313,10.31A3.238,3.238,0,0,0,47.259,6.9c-.363-.05-.736-.091-1.1-.131-1.079-.131-2.1-.241-3.075-.453A32.059,32.059,0,0,1,31.469.905,4.057,4.057,0,0,0,29.17,0a4.115,4.115,0,0,0-2.289.9C21.406,4.647,16.475,6.558,11.373,6.88a3.247,3.247,0,0,0-3.368,3.611v4C8,18.185,8,22,8.036,25.759a20.25,20.25,0,0,0,.524,4.315,19.451,19.451,0,0,0,5.485,9.465,37.63,37.63,0,0,0,13.864,8.61,3.554,3.554,0,0,0,1.23.221,3.84,3.84,0,0,0,1.512-.312c.313-.141.635-.272.948-.4l.03-.01c1.381-.594,2.8-1.207,4.194-1.931a30.65,30.65,0,0,0,10.728-8.831,17.174,17.174,0,0,0,3.66-9.656c.031-.644.051-1.328.061-2.1l.05-6.216V16.385c0-2.032,0-4.053-.01-6.075Zm-2.42,8.479v.07L47.843,25.1c-.01.744-.03,1.4-.05,2.022a14.838,14.838,0,0,1-3.2,8.328,28.381,28.381,0,0,1-9.912,8.127c-1.3.684-2.682,1.277-4.023,1.851l-.03.01c-.323.141-.635.272-.958.412a1.381,1.381,0,0,1-.544.111,1.129,1.129,0,0,1-.383-.06,35.431,35.431,0,0,1-13-8.046,16.764,16.764,0,0,1-5.294-12.11c-.04-3.742-.03-7.554-.03-11.235v-4a1.474,1.474,0,0,1,.212-.945,1.448,1.448,0,0,1,.9-.261C17.09,8.932,22.4,6.9,28.252,2.877a2.225,2.225,0,0,1,.918-.463,2.3,2.3,0,0,1,.918.473A34.484,34.484,0,0,0,42.57,8.67a31.708,31.708,0,0,0,3.317.493c.363.04.716.08,1.079.131.706.091.938.342.938,1.016v6.065l-.01,2.414Z" transform="translate(-8)"/><g transform="translate(5.668 11.337)"><path class="f" d="M34.279,34.217a.854.854,0,0,1,.708.841V36a.854.854,0,0,1-.708.841l-1.112.2a5.759,5.759,0,0,1-.574,1.383l.649.923a.853.853,0,0,1-.1,1.1l-.667.666a.856.856,0,0,1-1.1.1l-.924-.648a5.766,5.766,0,0,1-1.385.573l-.2,1.111a.854.854,0,0,1-.842.707h-.942a.855.855,0,0,1-.842-.707l-.2-1.111a5.769,5.769,0,0,1-1.385-.573l-.924.648a.856.856,0,0,1-1.1-.1l-.664-.666a.853.853,0,0,1-.1-1.1l.649-.923a5.762,5.762,0,0,1-.463-1.054,2.606,2.606,0,0,0,.538-1.178l.09-.514.276-.113.425.311a2.606,2.606,0,0,0,1.5.473c.085,0,.165-.015.257-.023a2.538,2.538,0,1,0,3.193-3.2,2.6,2.6,0,0,0-.451-1.754l-.3-.424q.059-.136.113-.275l.515-.09a2.611,2.611,0,0,0,1.179-.537,5.785,5.785,0,0,1,1.056.463l.924-.648a.856.856,0,0,1,1.1.1l.667.666a.853.853,0,0,1,.1,1.1l-.662.923a5.749,5.749,0,0,1,.574,1.383Zm-29.571,0,1.112-.2a5.749,5.749,0,0,1,.574-1.383l-.662-.923a.853.853,0,0,1,.1-1.1l.667-.666a.856.856,0,0,1,1.1-.1l.924.648a5.785,5.785,0,0,1,1.056-.463,2.611,2.611,0,0,0,1.179.537l.515.09q.054.139.113.275l-.3.424a2.6,2.6,0,0,0-.451,1.754,2.536,2.536,0,1,0,3.193,3.2c.093.008.173.023.257.023a2.606,2.606,0,0,0,1.5-.473l.425-.311.276.113.09.514a2.606,2.606,0,0,0,.538,1.178,5.762,5.762,0,0,1-.463,1.054l.649.923a.853.853,0,0,1-.1,1.1l-.664.666a.856.856,0,0,1-1.1.1l-.924-.648a5.769,5.769,0,0,1-1.385.573l-.2,1.111a.855.855,0,0,1-.842.707h-.942a.854.854,0,0,1-.842-.707l-.2-1.111a5.766,5.766,0,0,1-1.385-.573L7.6,41.2a.856.856,0,0,1-1.1-.1l-.667-.666a.853.853,0,0,1-.1-1.1l.649-.923a5.759,5.759,0,0,1-.574-1.383l-1.112-.2A.854.854,0,0,1,4,36v-.941A.854.854,0,0,1,4.708,34.217Zm5.3-6.209v-1.2a1.085,1.085,0,0,1,.9-1.07l1.411-.257a7.291,7.291,0,0,1,.729-1.756l-.824-1.172a1.084,1.084,0,0,1,.121-1.388l.847-.846a1.088,1.088,0,0,1,1.39-.121l1.174.823a7.333,7.333,0,0,1,1.759-.728l.258-1.409A1.086,1.086,0,0,1,18.834,18h1.2a1.086,1.086,0,0,1,1.069.9l.257,1.409a7.32,7.32,0,0,1,1.759.728l1.174-.823a1.088,1.088,0,0,1,1.39.121l.847.846a1.084,1.084,0,0,1,.121,1.388l-.824,1.172a7.3,7.3,0,0,1,.729,1.756l1.411.257a1.086,1.086,0,0,1,.9,1.067v1.2a1.086,1.086,0,0,1-.9,1.067l-1.411.257a7.308,7.308,0,0,1-.729,1.756l.824,1.172a1.084,1.084,0,0,1-.121,1.388l-.847.846a1.088,1.088,0,0,1-1.39.121L23.116,33.8a7.31,7.31,0,0,1-1.759.728L21.1,35.939a1.086,1.086,0,0,1-1.069.9h-1.2a1.086,1.086,0,0,1-1.069-.9l-.257-1.409a7.314,7.314,0,0,1-1.759-.728l-1.174.823a1.088,1.088,0,0,1-1.39-.121l-.847-.846a1.084,1.084,0,0,1-.121-1.388l.824-1.172a7.294,7.294,0,0,1-.729-1.756l-1.4-.267A1.086,1.086,0,0,1,10.01,28.007Zm5.237-.6a4.188,4.188,0,1,0,4.184-4.178A4.181,4.181,0,0,0,15.247,27.408Z" transform="translate(-4 -18)"/></g></g></g></g><text class="e" transform="translate(1242 3023.666)"><tspan x="-22.416" y="0">Micro</tspan><tspan x="-31.736" y="24">services</tspan></text><path class="f" d="M24.533,37.258a5.672,5.672,0,1,0,4.873.925l5.639-11.062a4.352,4.352,0,0,0,2.357-.014,4.449,4.449,0,0,0,1.851-1.012L45.4,30.476a3.63,3.63,0,0,0-.116,2.256,3.673,3.673,0,1,0,2.574-4.512,3.521,3.521,0,0,0-1.359.723l-6.131-4.4a4.45,4.45,0,0,0,.217-3.008,4.982,4.982,0,0,0-.362-.911l5.394-4.483a4.874,4.874,0,1,0-1.634-2.5,4.751,4.751,0,0,0,.419,1.041L39.007,19.2a4.588,4.588,0,0,0-3.991-.81,4.5,4.5,0,0,0-2.111,1.272l-6.276-3.774a6.3,6.3,0,0,0,.26-4.136,6.4,6.4,0,1,0-4.468,7.866,6.248,6.248,0,0,0,3.239-2.111l6.29,3.774a4.5,4.5,0,0,0-.087,2.661,4.568,4.568,0,0,0,1.5,2.314L27.728,37.315A5.848,5.848,0,0,0,24.533,37.258ZM47.886,9.509a2.991,2.991,0,1,1-2.1,3.673A2.989,2.989,0,0,1,47.886,9.509ZM27.02,46.353a3.755,3.755,0,1,1,2.632-4.613A3.748,3.748,0,0,1,27.02,46.353ZM50.546,31.314a1.777,1.777,0,1,1-2.183-1.244A1.785,1.785,0,0,1,50.546,31.314ZM35.508,20.224a2.624,2.624,0,1,1-1.836,3.225A2.632,2.632,0,0,1,35.508,20.224ZM16.377,14.642a4.506,4.506,0,1,1,5.538,3.152A4.5,4.5,0,0,1,16.377,14.642Z" transform="translate(1204.807 2951.958)"/><text class="e" transform="translate(1178 3251)"><tspan x="-31.68" y="0">DevOps</tspan></text><g transform="translate(1151.865 3185.088)"><path class="f" d="M37.427,11.893V7.968a1.053,1.053,0,0,0-1.8-.745l-6.936,6.936a1.053,1.053,0,0,0,0,1.489l6.936,6.936a1.053,1.053,0,0,0,1.8-.745V17.924a8.041,8.041,0,1,1-8.142,8.038A14.075,14.075,0,1,0,15.047,40.028v3.929a1.053,1.053,0,0,0,1.8.745l6.936-6.936a1.053,1.053,0,0,0,0-1.489L16.845,29.34a1.053,1.053,0,0,0-1.8.745V34a8.04,8.04,0,1,1,8.207-8.035A14.075,14.075,0,1,0,37.427,11.893Z" transform="translate(0 0)"/><path class="f" d="M37.427,11.893V7.968a1.053,1.053,0,0,0-1.8-.745l-6.936,6.936a1.053,1.053,0,0,0,0,1.489l6.936,6.936a1.053,1.053,0,0,0,1.8-.745V17.924a8.041,8.041,0,1,1-8.142,8.038A14.075,14.075,0,1,0,15.047,40.028v3.929a1.053,1.053,0,0,0,1.8.745l6.936-6.936a1.053,1.053,0,0,0,0-1.489L16.845,29.34a1.053,1.053,0,0,0-1.8.745V34a8.04,8.04,0,1,1,8.207-8.035A14.075,14.075,0,1,0,37.427,11.893Z" transform="translate(0 0)"/></g><text class="e" transform="translate(960 3345)"><tspan x="-30.576" y="0">Legacy </tspan><tspan x="-39.816" y="24">migration</tspan></text><g transform="translate(937.17 2997.171)"><path class="f" d="M12.563,284.829a2.506,2.506,0,0,0-2.175,3.791l2.153,3.593,2.148-3.593a2.506,2.506,0,0,0-2.125-3.791Zm-.029,1.5a.983.983,0,1,1-.7.3.983.983,0,0,1,.7-.3Z" transform="translate(27.354)"/><path class="f" d="M4.437,293.256v-1.31a3.018,3.018,0,0,1,3.016-3.016H21.01l-.971-.818a.487.487,0,0,1,.626-.746l2.437,2.05-2.437,2.05a.487.487,0,0,1-.626-.744l.971-.817H7.454a2.044,2.044,0,0,0-2.042,2.044v1.31Z" transform="translate(10.722 7.234)"/><path class="f" d="M17.661,293.318l.817-.972v13.548a2.044,2.044,0,0,1-2.042,2.044H8.468l-.6.974h8.564a3.018,3.018,0,0,0,3.016-3.018V292.346l.817.972a.487.487,0,1,0,.747-.627l-2.049-2.439-2.052,2.439a.487.487,0,1,0,.747.627Z" transform="translate(20.93 16.118)"/><path class="f" d="M18.772,293.647a4.787,4.787,0,0,0-8.819-3.682H13.6a.487.487,0,1,1,0,.974h-4a4.787,4.787,0,0,0,8.708,3.682H15.488a.487.487,0,1,1,0-.974Z" transform="translate(25.645 7.309)"/><path class="f" d="M11.105,290.348a14.824,14.824,0,0,1,3.465,9.044H7.439a25.686,25.686,0,0,0-1.262-7.48,29.52,29.52,0,0,0,4.928-1.564Z" transform="translate(15.892 16.402)"/><path class="f" d="M9.658,290.792a24.712,24.712,0,0,1,1.249,7.282H4.683V291.3a29.508,29.508,0,0,0,4.975-.506Z" transform="translate(11.451 17.722)"/><path class="f" d="M9.094,291.3v6.776H2.871a24.712,24.712,0,0,1,1.249-7.282,29.505,29.505,0,0,0,4.975.506Z" transform="translate(6.065 17.721)"/><path class="f" d="M4.291,290.348A14.824,14.824,0,0,0,.83,299.392H7.961a25.685,25.685,0,0,1,1.262-7.48,29.511,29.511,0,0,1-4.932-1.564Z" transform="translate(0 16.402)"/><path class="f" d="M11.105,301.914a14.824,14.824,0,0,0,3.465-9.044H7.439a25.687,25.687,0,0,1-1.262,7.48,29.5,29.5,0,0,1,4.928,1.564Z" transform="translate(15.892 23.898)"/><path class="f" d="M4.683,299.646a29.493,29.493,0,0,1,4.975.506,24.713,24.713,0,0,0,1.249-7.282H4.683Z" transform="translate(11.451 23.898)"/><path class="f" d="M4.119,300.153a24.711,24.711,0,0,1-1.249-7.282H9.094v6.776a29.508,29.508,0,0,0-4.975.506Z" transform="translate(6.065 23.9)"/><path class="f" d="M4.291,301.914A14.823,14.823,0,0,1,.83,292.87H7.961a25.687,25.687,0,0,0,1.262,7.48,29.522,29.522,0,0,0-4.932,1.564Z" transform="translate(0 23.898)"/><path class="f" d="M1.876,296.393a28.524,28.524,0,0,1,4.56-1.406,25.687,25.687,0,0,0,2.417,4.88,4.374,4.374,0,0,0,.572.72,14.824,14.824,0,0,1-7.55-4.193Z" transform="translate(3.109 30.189)"/><path class="f" d="M3.267,295.283a24.713,24.713,0,0,0,2.27,4.552,3.39,3.39,0,0,0,2.377,1.538v-6.551a28.545,28.545,0,0,0-4.647.461Z" transform="translate(7.244 29.699)"/><path class="f" d="M7.056,299.835a24.712,24.712,0,0,0,2.274-4.552,28.534,28.534,0,0,0-4.647-.461v6.55a3.39,3.39,0,0,0,2.374-1.537Z" transform="translate(11.451 29.699)"/><path class="f" d="M5.344,300.586a4.361,4.361,0,0,0,.572-.72,25.682,25.682,0,0,0,2.414-4.88,28.511,28.511,0,0,1,4.563,1.406,14.823,14.823,0,0,1-7.55,4.193Z" transform="translate(13.414 30.187)"/><path class="f" d="M12.893,293.292A28.548,28.548,0,0,1,8.33,294.7a25.686,25.686,0,0,0-2.414-4.88,4.372,4.372,0,0,0-.572-.72,14.824,14.824,0,0,1,7.55,4.193Z" transform="translate(13.414 12.688)"/><path class="f" d="M9.33,295.113a24.709,24.709,0,0,0-2.274-4.552,3.391,3.391,0,0,0-2.374-1.537v6.55a28.552,28.552,0,0,0,4.647-.461Z" transform="translate(11.451 12.467)"/><path class="f" d="M5.538,290.561a24.7,24.7,0,0,0-2.27,4.552,28.549,28.549,0,0,0,4.647.462v-6.55a3.39,3.39,0,0,0-2.377,1.537Z" transform="translate(7.244 12.467)"/><path class="f" d="M9.425,289.1a4.369,4.369,0,0,0-.572.72,25.688,25.688,0,0,0-2.417,4.88,28.545,28.545,0,0,1-4.56-1.406,14.824,14.824,0,0,1,7.55-4.193Z" transform="translate(3.109 12.69)"/></g><text class="e" transform="translate(769 3270)"><tspan x="-50.408" y="0">Cloud native</tspan><tspan x="-34.832" y="24">platform</tspan></text><g transform="translate(703.72 3186.97)"><path class="f" d="M23.858,16.213l.062,0a.933.933,0,0,0,.93-.871,2.124,2.124,0,0,1,3.221-1.693.933.933,0,1,0,.974-1.591,3.99,3.99,0,0,0-6.057,3.16A.934.934,0,0,0,23.858,16.213Z" transform="translate(-1.471 -0.559)"/><path class="f" d="M19,18.214a3.7,3.7,0,0,0-.789-.078,3.988,3.988,0,0,0-3.983,3.983.933.933,0,0,0,1.866,0A2.119,2.119,0,0,1,18.215,20a1.856,1.856,0,0,1,.388.035.933.933,0,1,0,.4-1.822Z" transform="translate(-0.885 -1.005)"/><path class="f" d="M47.423,26.1a3.984,3.984,0,0,0,.475-7.94.933.933,0,1,0-.213,1.853,2.118,2.118,0,0,1-.262,4.221.933.933,0,1,0,0,1.866Z" transform="translate(-3.043 -1.006)"/><path class="f" d="M39.329,8.986A3.874,3.874,0,0,1,43.2,12.852a3.673,3.673,0,0,1-.079.781.934.934,0,0,0,.708,1.114.973.973,0,0,0,.2.022.933.933,0,0,0,.91-.731,5.559,5.559,0,0,0,.124-1.186A5.743,5.743,0,0,0,39.329,7.12a.933.933,0,1,0,0,1.866Z" transform="translate(-2.502 -0.268)"/><path class="f" d="M3.376,58.882H18.959a2.378,2.378,0,0,0,2.376-2.376V54.187a.923.923,0,0,0-.831-.913v-8.9a2.09,2.09,0,0,0-2.087-2.088H12.1V38.549h7.311a.933.933,0,0,0,.933-.933V28.831H41.374v8.785a.933.933,0,0,0,.933.933h7.311v3.734H43.3a2.09,2.09,0,0,0-2.087,2.088v8.9a.923.923,0,0,0-.831.913v2.319a2.378,2.378,0,0,0,2.376,2.376H58.342a2.378,2.378,0,0,0,2.376-2.376V54.187a.923.923,0,0,0-.831-.913v-8.9A2.09,2.09,0,0,0,57.8,42.283H51.484V37.616a.933.933,0,0,0-.933-.933H43.24V28.831H44.38a7.718,7.718,0,0,0,1.865-15.208,9.612,9.612,0,0,0,.056-1.038A9.466,9.466,0,0,0,28.637,7.851a7.723,7.723,0,0,0-10.713,5.569c-.195-.015-.393-.022-.594-.022a7.716,7.716,0,0,0,0,15.432h1.149v7.852H11.168a.933.933,0,0,0-.933.933v4.667H3.919a2.09,2.09,0,0,0-2.088,2.088v8.9A.923.923,0,0,0,1,54.187v2.319A2.378,2.378,0,0,0,3.376,58.882Zm55.476-2.376a.51.51,0,0,1-.51.509H42.76a.51.51,0,0,1-.51-.509V55.12h5.517l.064.171a.934.934,0,0,0,.873.605H52.4a.934.934,0,0,0,.873-.605l.064-.171h5.517Zm-.831-12.136v8.884H52.69a.934.934,0,0,0-.873.605l-.064.171h-2.4l-.064-.171a.934.934,0,0,0-.873-.605H43.081V44.371a.222.222,0,0,1,.221-.221H57.8A.222.222,0,0,1,58.021,44.371ZM11.48,21.114a5.856,5.856,0,0,1,5.85-5.849,5.506,5.506,0,0,1,1.193.123.934.934,0,0,0,1.133-.849,5.855,5.855,0,0,1,8.9-4.628.934.934,0,0,0,1.34-.416,7.6,7.6,0,0,1,14.542,3.089,7.355,7.355,0,0,1-.168,1.59.933.933,0,0,0,.8,1.129,5.85,5.85,0,0,1-.69,11.661H17.33A5.857,5.857,0,0,1,11.48,21.114Zm7.989,35.392a.51.51,0,0,1-.51.509H3.376a.51.51,0,0,1-.51-.509V55.12H8.383l.064.171a.934.934,0,0,0,.874.605h3.694a.934.934,0,0,0,.873-.605l.064-.171h5.517v1.386ZM3.919,44.149h14.5a.222.222,0,0,1,.221.221v8.884H13.306a.934.934,0,0,0-.873.605l-.064.171h-2.4L9.9,53.859a.934.934,0,0,0-.874-.605H3.7V44.371A.222.222,0,0,1,3.919,44.149Z" transform="translate(0 0)"/></g><text class="e" transform="translate(675 3040)"><tspan x="-39.488" y="0">Mobility &amp;</tspan><tspan x="-55.176" y="24">Omnichannel</tspan></text><g transform="translate(650.503 2956.764)"><g transform="translate(0.497 2.236)"><path class="f" d="M12.233,38.539a1.36,1.36,0,0,0,0-2.719A9.013,9.013,0,0,1,11.1,17.864a1.36,1.36,0,0,0,1.186-1.451l-.005-.07c-.017-.223-.035-.446-.035-.674a10.709,10.709,0,0,1,20.831-3.5,1.358,1.358,0,0,0,1.4.911c.376-.034.714-.05,1.034-.05a11.2,11.2,0,0,1,2.845,22.026,1.359,1.359,0,0,0,.688,2.63,13.915,13.915,0,0,0-3.533-27.375l-.246,0A13.427,13.427,0,0,0,9.533,15.386a11.733,11.733,0,0,0,2.7,23.153Z" transform="translate(-0.497 -2.236)"/><path class="f" d="M24.912,68.943a1.359,1.359,0,0,0,0,1.922l4.793,4.792a1.358,1.358,0,0,0,1.922,0l4.792-4.792A1.359,1.359,0,0,0,34.5,68.943l-2.472,2.472v-9.6a1.36,1.36,0,0,0-2.719,0v9.593l-2.471-2.471A1.359,1.359,0,0,0,24.912,68.943Z" transform="translate(-11.521 -28.961)"/><path class="f" d="M52.217,53.347,54.69,55.82A1.359,1.359,0,0,0,56.612,53.9L51.818,49.1a1.359,1.359,0,0,0-1.922,0L45.1,53.9a1.359,1.359,0,0,0,1.922,1.922L49.5,53.346V62.64a1.36,1.36,0,0,0,2.719,0V53.347Z" transform="translate(-20.787 -23.565)"/><path class="f" d="M54.925,78.516a1.359,1.359,0,0,0-1.36,1.359v1.111a1.36,1.36,0,1,0,2.719,0V79.875A1.359,1.359,0,0,0,54.925,78.516Z" transform="translate(-24.855 -37.248)"/><path class="f" d="M34.731,56.284a1.36,1.36,0,0,0,1.36-1.36V53.416a1.36,1.36,0,1,0-2.719,0v1.508A1.359,1.359,0,0,0,34.731,56.284Z" transform="translate(-15.586 -25.103)"/></g></g><text class="h" transform="translate(810 3012)"><tspan x="-35.147" y="0">Advanced</tspan><tspan x="-30.87" y="22">analytics</tspan></text><text class="e" transform="translate(822 2815)"><tspan x="-24.704" y="0">Smart</tspan><tspan x="-44.928" y="24">application</tspan></text><g transform="translate(556.552 -334.454)"><circle class="i" cx="0.207" cy="0.207" r="0.207" transform="translate(305.687 3063.448)"/><path class="i" d="M55.247,21.064v.011L39.133,23.259a.7.7,0,0,0-.6.843L43.7,50.132a.788.788,0,0,0,.118.283.814.814,0,0,0,.2.2c.005,0,.009.01.014.013a.806.806,0,0,0,.275.12h0a.805.805,0,0,0,.314.007L58.6,48.141v.011l1.628-.3V20.409a.649.649,0,0,0-.109-.007Z" transform="translate(259.377 3052.577)"/><circle class="i" cx="2.28" cy="2.28" r="2.28" transform="translate(303.324 3117.703)"/><circle class="i" cx="0.402" cy="0.402" r="0.402" transform="translate(301.839 3064.835)"/><path class="i" d="M48.425,8.952h2.954a.155.155,0,0,0,0-.311H48.425a.155.155,0,0,0,0,.311Z" transform="translate(256.173 3056.441)"/><path class="i" d="M55.413,48.915A1.487,1.487,0,0,1,53.928,50.4H31.7a1.487,1.487,0,0,1-1.485-1.485V19.444A1.487,1.487,0,0,1,31.7,17.959H52.012v.008l4.832-.655a1.385,1.385,0,0,1,.2-.007V12.953H28.807V61.561H57.04v-15.5l-1.628.3v2.55Z" transform="translate(262.568 3055.024)"/><path class="i" d="M42.309,51.769H42.3a1.322,1.322,0,0,1-.136-.012c-.044,0-.087-.007-.13-.015A1.415,1.415,0,0,1,41.9,51.7c-.039-.012-.078-.023-.116-.038s-.083-.036-.123-.056a1.215,1.215,0,0,1-.119-.066,1.173,1.173,0,0,1-.1-.068,1.536,1.536,0,0,1-.12-.1c-.026-.024-.05-.046-.074-.071a1.323,1.323,0,0,1-.113-.138c-.017-.023-.036-.045-.052-.07a1.443,1.443,0,0,1-.1-.177c-.01-.021-.022-.041-.031-.062a1.508,1.508,0,0,1-.081-.266L35.7,24.562a1.372,1.372,0,0,1,1.17-1.639l11.184-1.517H32.724a.815.815,0,0,0-.814.814V51.691a.815.815,0,0,0,.814.814H54.947a.815.815,0,0,0,.814-.814V49.278L42.577,51.742A1.356,1.356,0,0,1,42.309,51.769Z" transform="translate(261.548 3052.247)"/><path class="f" d="M56.1,47.832v-.011L42.124,50.435a.805.805,0,0,1-.314-.007h0a.812.812,0,0,1-.275-.12c-.005,0-.009-.009-.014-.013a.8.8,0,0,1-.2-.2.777.777,0,0,1-.118-.283l-5.173-26.03a.7.7,0,0,1,.6-.843l16.114-2.185v-.011l4.876-.661a.728.728,0,0,1,.109.007v-.658a1.385,1.385,0,0,0-.2.007l-4.832.655v-.008H32.4a1.487,1.487,0,0,0-1.485,1.485V51.042A1.487,1.487,0,0,0,32.4,52.528H54.619A1.487,1.487,0,0,0,56.1,51.042v-2.55l1.628-.3v-.661Zm-.671,3.212a.815.815,0,0,1-.814.814H32.4a.815.815,0,0,1-.814-.814V21.572a.815.815,0,0,1,.814-.814H47.728L36.543,22.275a1.372,1.372,0,0,0-1.17,1.639l5.173,26.03a1.4,1.4,0,0,0,.081.266c.009.021.021.042.031.062a1.443,1.443,0,0,0,.1.177c.016.024.034.046.052.07a1.324,1.324,0,0,0,.113.138c.024.026.049.048.074.071a1.284,1.284,0,0,0,.12.1c.032.024.065.046.1.068s.078.046.119.066.081.04.123.056.077.026.116.038a1.414,1.414,0,0,0,.139.038c.042.008.086.011.13.015a1.287,1.287,0,0,0,.136.012h.008a1.45,1.45,0,0,0,.267-.025l13.184-2.464Z" transform="translate(261.877 3052.896)"/><g transform="translate(288.448 3062)"><path class="f" d="M56.916,4.051H26.3A2.2,2.2,0,0,0,24.448,6.48V62.934A2.192,2.192,0,0,0,26.3,65.359h30.62a2.193,2.193,0,0,0,1.846-2.425V6.48A2.2,2.2,0,0,0,56.916,4.051ZM41.894,5.5a.207.207,0,1,1-.207.208A.208.208,0,0,1,41.894,5.5ZM40.6,7.133h2.954a.155.155,0,0,1,0,.311H40.6a.155.155,0,0,1,0-.311Zm-2.357-.246a.4.4,0,1,1-.4.4A.4.4,0,0,1,38.241,6.886ZM41.6,64.314a2.28,2.28,0,1,1,2.28-2.28A2.279,2.279,0,0,1,41.6,64.314Zm14-5.678H27.375V10.028H55.608V58.636Z" transform="translate(-24.448 -4.051)"/></g><g transform="translate(303.586 3117.963)"><path class="f" d="M49.012,91.438a2.02,2.02,0,1,1,2.019-2.019A2.021,2.021,0,0,1,49.012,91.438Zm0-3.7A1.684,1.684,0,1,0,50.7,89.419,1.686,1.686,0,0,0,49.012,87.735Z" transform="translate(-46.993 -87.399)"/></g><g transform="translate(295.745 3107.18)"><path class="f" d="M38.932,78.57a3.616,3.616,0,1,1,3.616-3.615A3.62,3.62,0,0,1,38.932,78.57Zm0-6.559a2.944,2.944,0,1,0,2.944,2.945A2.949,2.949,0,0,0,38.932,72.011Z" transform="translate(-35.316 -71.339)"/></g><g transform="translate(308.85 3107.18)"><path class="f" d="M58.449,78.57a3.616,3.616,0,1,1,3.616-3.615A3.62,3.62,0,0,1,58.449,78.57Zm0-6.559a2.944,2.944,0,1,0,2.944,2.945A2.949,2.949,0,0,0,58.449,72.011Z" transform="translate(-54.833 -71.339)"/></g><g transform="translate(303.709 3108.556)"><path class="f" d="M49.416,77.868a2.24,2.24,0,1,1,2.241-2.239A2.242,2.242,0,0,1,49.416,77.868Zm0-3.808a1.568,1.568,0,1,0,1.569,1.569A1.57,1.57,0,0,0,49.416,74.06Z" transform="translate(-47.176 -73.389)"/></g><path class="f" d="M60.971,75.461c-.825-1.087-1.637.383-1.637.383s-.825-1.463-1.638-.367,1.65,2.209,1.65,2.209S61.8,76.547,60.971,75.461Z" transform="translate(253.13 3034.618)"/><path class="f" d="M41.139,77.125l-.929-.868.926-.865a.345.345,0,1,0-.471-.5l-.96.9-.991-.927a.345.345,0,1,0-.471.5l.957.9-1,.937a.345.345,0,1,0,.471.5l1.037-.969.963.9a.345.345,0,0,0,.471-.5Z" transform="translate(259.519 3034.715)"/></g><text class="h" transform="translate(1002 2914)"><tspan x="-30.681" y="0">Big Data</tspan><tspan x="-29.554" y="22">Strategy</tspan></text><g transform="translate(968.028 2847.654)"><ellipse class="f" cx="10" cy="2.5" rx="10" ry="2.5" transform="translate(23.973 13.346)"/><path class="f" d="M34.154,53.213c6.569,0,10.154-1.675,10.154-2.538V45.02c-2.136,1.281-6.163,1.945-10.154,1.945S26.136,46.3,24,45.02v5.655C24,51.538,27.585,53.213,34.154,53.213Zm7.83-5.467a1.172,1.172,0,1,1-1.164,1.179A1.17,1.17,0,0,1,41.984,47.746Z" transform="translate(0 -19.515)"/><path class="f" d="M34.154,73.213c6.569,0,10.154-1.675,10.154-2.538V65.02c-2.136,1.281-6.163,1.945-10.154,1.945S26.136,66.3,24,65.02v5.655C24,71.538,27.585,73.213,34.154,73.213Zm7.83-5.467a1.172,1.172,0,1,1-1.164,1.179A1.17,1.17,0,0,1,41.984,67.746Z" transform="translate(0 -31.705)"/><path class="f" d="M34.154,33.213c6.569,0,10.154-1.675,10.154-2.538V25.02c-2.136,1.281-6.163,1.945-10.154,1.945S26.136,26.3,24,25.02v5.655C24,31.538,27.585,33.213,34.154,33.213Zm7.772-5.467a1.172,1.172,0,1,1-1.164,1.179A1.17,1.17,0,0,1,41.925,27.746Z" transform="translate(0 -7.326)"/></g><text class="h" transform="translate(1112 2987.5)"><tspan x="-13.769" y="0">IOT </tspan><tspan x="-28.252" y="22">Analysis</tspan></text><g transform="translate(1089.201 2925.518)"><path class="f" d="M37.715,29.029a4.311,4.311,0,0,0-4.152,3.238h-1.7a1.249,1.249,0,0,1-1.245-1.245V25.043h1.951A8.545,8.545,0,1,0,31.488,8.022,11.244,11.244,0,0,0,11.145,10.18a7.431,7.431,0,0,0,0,14.863h3.072v5.978a1.249,1.249,0,0,1-1.245,1.245h-1.7a4.318,4.318,0,1,0,0,2.159h1.7a3.42,3.42,0,0,0,3.4-3.4V25.043h4.982v8.469a4.318,4.318,0,1,0,2.159,0V25.043H28.5v5.978a3.42,3.42,0,0,0,3.4,3.4h1.7a4.3,4.3,0,0,0,8.469-1.079A4.433,4.433,0,0,0,37.715,29.029ZM7.076,35.505a2.159,2.159,0,1,1,2.2-2.159A2.162,2.162,0,0,1,7.076,35.505Zm17.478,2.117a2.159,2.159,0,0,1-4.318,0A2.109,2.109,0,0,1,22.4,35.505,2.135,2.135,0,0,1,24.554,37.623ZM5.831,17.612A5.28,5.28,0,0,1,11.1,12.339c.166,0,.332.042.664.083a1.086,1.086,0,0,0,1.162-.83,9.1,9.1,0,0,1,16.98-1.91,1.088,1.088,0,0,0,1.2.581,5.683,5.683,0,0,1,1.412-.166,6.393,6.393,0,1,1,0,12.787H11.1A5.28,5.28,0,0,1,5.831,17.612ZM37.715,35.505a2.159,2.159,0,1,1,2.159-2.159A2.171,2.171,0,0,1,37.715,35.505Z"/><path class="f" d="M40.613,20.1a8.882,8.882,0,0,0-6.352,2.616A1.086,1.086,0,1,0,35.8,24.252a7.013,7.013,0,0,1,9.632,0,1.116,1.116,0,0,0,.747.332,1,1,0,0,0,.747-.291,1.1,1.1,0,0,0,0-1.536A8.756,8.756,0,0,0,40.613,20.1Z" transform="translate(-18.218 -10.293)"/><path class="f" d="M40.561,30.595A1.086,1.086,0,1,0,42.1,32.131a3.183,3.183,0,0,1,4.442,0,1.007,1.007,0,0,0,1.495,0,1.1,1.1,0,0,0,0-1.536A5.418,5.418,0,0,0,40.561,30.595Z" transform="translate(-21.902 -15.557)"/><circle class="f" cx="1.619" cy="1.619" r="1.619" transform="translate(20.776 17.155)"/></g><text class="h" transform="translate(1113 3141)"><tspan x="-16.884" y="0">Data</tspan><tspan x="-27.216" y="22">Science</tspan></text><g transform="translate(1085.883 3071.285)"><path class="f" d="M50.492,19.483c-1.281-2.217-4.9-1.831-7.4-1.217-.85-2.969-2.2-5.211-4.007-5.7V9.575a3.864,3.864,0,0,0-3.86-3.86H15.336a3.859,3.859,0,0,0-3.85,3.86v1.419c-5.557.2-9.37,2.567-9.37,4.707,0,2.236,4.155,4.726,10.118,4.726s10.111-2.487,10.116-4.722V15.7c0-2.14-3.811-4.506-9.365-4.706V9.575a2.358,2.358,0,0,1,2.35-2.36h19.89a2.362,2.362,0,0,1,2.36,2.36v2.99c-1.812.487-3.161,2.729-4.012,5.7-2.5-.614-6.118-1-7.4,1.217s.871,5.169,2.643,7.019c-1.771,1.849-3.916,4.814-2.643,7.019.447.774,1.5,1.7,3.95,1.7a14.773,14.773,0,0,0,3.448-.481c.851,2.971,2.2,5.214,4.012,5.7v3a2.358,2.358,0,0,1-2.36,2.35H15.336a2.353,2.353,0,0,1-2.35-2.35V42.006c5.554-.2,9.364-2.57,9.364-4.709V34.118c-2.212,1.782-5.879,2.93-10.116,2.93S4.335,35.9,2.123,34.122V37.3c0,2.142,3.811,4.513,9.364,4.71v1.428a3.854,3.854,0,0,0,3.85,3.85h19.89a3.859,3.859,0,0,0,3.86-3.85v-3c1.809-.489,3.157-2.731,4.007-5.7a14.775,14.775,0,0,0,3.448.481c2.455,0,3.5-.923,3.951-1.7,1.1-1.9-.21-4.5-2.641-7.019C50.282,23.985,51.587,21.381,50.492,19.483ZM30.127,33.72c-1.357,0-2.3-.336-2.651-.948-.825-1.428,1.274-4.026,2.417-5.223a29.067,29.067,0,0,0,2.779,2.228,30.021,30.021,0,0,0,.54,3.51A13.3,13.3,0,0,1,30.127,33.72Zm2.408-5.908c-.555-.43-1.079-.867-1.566-1.309.487-.442,1.011-.879,1.566-1.309C32.5,26.06,32.5,26.89,32.535,27.811Zm.137-4.584a29.068,29.068,0,0,0-2.779,2.228c-4.4-4.6-3.168-7.326,3.319-5.738A30.045,30.045,0,0,0,32.671,23.227Zm9.7-1.091c-.92-.579-1.462-.877-2.276-1.307q.984-.4,1.928-.707C42.158,20.754,42.274,21.428,42.37,22.136Zm-4.037-8.172h.005c1.195,0,2.465,1.771,3.318,4.706a29.227,29.227,0,0,0-3.321,1.285,29.224,29.224,0,0,0-3.322-1.285C35.866,15.734,37.137,13.966,38.333,13.964Zm-3.687,6.158q.943.3,1.929.707c-.763.4-1.312.7-2.276,1.306C34.394,21.428,34.51,20.754,34.646,20.122ZM34.3,30.87c.946.593,1.491.891,2.276,1.306q-.985.4-1.929.707C34.509,32.251,34.394,31.577,34.3,30.87Zm4.036,8.171c-1.2,0-2.468-1.769-3.321-4.707a29.206,29.206,0,0,0,3.321-1.285,29.211,29.211,0,0,0,3.321,1.285C40.8,37.272,39.529,39.041,38.334,39.041Zm3.688-6.158q-.943-.3-1.928-.707c.768-.406,1.324-.708,2.276-1.307C42.274,31.576,42.158,32.251,42.022,32.882Zm.547-3.935a45.961,45.961,0,0,1-4.235,2.437A32.339,32.339,0,0,1,34.1,28.949a33.5,33.5,0,0,1,0-4.892,32.327,32.327,0,0,1,4.235-2.436,32.145,32.145,0,0,1,4.235,2.437A33.475,33.475,0,0,1,42.569,28.948Zm4.207-3.484A30.018,30.018,0,0,0,44,23.233a30.031,30.031,0,0,0-.541-3.515C49.486,18.242,51.5,20.541,46.776,25.464Zm-2.643-.274c.567.438,1.094.877,1.575,1.312-.48.435-1.008.874-1.575,1.312C44.166,26.943,44.168,26.111,44.133,25.19Zm5.06,7.582c-.821,1.422-4.041.931-5.737.516A30.021,30.021,0,0,0,44,29.772a30.009,30.009,0,0,0,2.779-2.231C48.895,29.75,49.791,31.736,49.193,32.772Z"/><path class="f" d="M2.123,30.154c.064,2.222,4.2,4.674,10.111,4.674,5.958,0,10.111-2.487,10.116-4.722V26.919c-2.212,1.782-5.879,2.93-10.116,2.93S4.335,28.7,2.123,26.923v3.231Z"/><path class="f" d="M22.351,22.907V19.718c-2.212,1.782-5.879,2.93-10.116,2.93S4.335,21.5,2.123,19.722v3.232c.064,2.221,4.2,4.674,10.111,4.674C18.192,27.628,22.345,25.141,22.351,22.907Z"/></g><text class="h" transform="translate(1018 3218)"><tspan x="-43.806" y="0">Data Hubs &amp;</tspan><tspan x="-38.696" y="22">Data Lakes</tspan></text><g transform="translate(985 3148)"><g transform="translate(13 2)"><g transform="translate(0 14.684)"><g transform="translate(4.068)"><path class="f" d="M62.943,45.385a.616.616,0,0,1-.614-.618V40.552a.614.614,0,1,1,1.228,0v4.214A.616.616,0,0,1,62.943,45.385Z" transform="translate(-47.302 -39.934)"/><rect class="f" width="4.278" height="3.275" transform="translate(13.503 4.887)"/><path class="f" d="M81.489,62.381a.616.616,0,0,1-.614-.618V56.428H68.608a.618.618,0,0,1,0-1.236H82.1v6.571A.616.616,0,0,1,81.489,62.381Z" transform="translate(-50.774 -49.286)"/><path class="f" d="M24.122,62.38a.616.616,0,0,1-.614-.618V55.19H37a.618.618,0,0,1,0,1.236H24.735v5.334A.616.616,0,0,1,24.122,62.38Z" transform="translate(-23.508 -49.284)"/></g><path class="f" d="M13,71.369V92.516h9.385V71.369Zm4.7,16.845a1.437,1.437,0,1,1,1.426-1.437A1.432,1.432,0,0,1,17.7,88.214Zm1.866-7.347h-3.53a.618.618,0,0,1,0-1.236h3.53a.618.618,0,0,1,0,1.236Zm0-5.115h-3.53a.618.618,0,0,1,0-1.236h3.53a.618.618,0,0,1,0,1.236Z" transform="translate(-13 -59.201)"/><path class="f" d="M90.756,71.369V92.516h9.385V71.369Zm4.7,16.845a1.437,1.437,0,1,1,1.426-1.437A1.432,1.432,0,0,1,95.453,88.214Zm1.866-7.347h-3.53a.618.618,0,0,1,0-1.236h3.53a.618.618,0,0,1,0,1.236Zm0-5.115h-3.53a.618.618,0,0,1,0-1.236h3.53a.618.618,0,0,1,0,1.236Z" transform="translate(-60.657 -59.201)"/></g><path class="f" d="M48.895,17.181h4.336a4.235,4.235,0,0,0,4.207-4.238h0a4.238,4.238,0,0,0-3.893-4.225,3.489,3.489,0,0,0-3.462-3.156,3.446,3.446,0,0,0-2.124.73,4.917,4.917,0,1,0-9.451,2.461,4.244,4.244,0,0,0-3.57,4.189h0a4.235,4.235,0,0,0,4.207,4.238H49.453" transform="translate(-26.446 -2)"/></g></g><text class="j" transform="translate(888 3204)"><tspan x="-37.512" y="0">Data Quality</tspan><tspan x="-41.142" y="18">governance &amp;</tspan><tspan x="-22.128" y="36">lineage</tspan></text><g transform="translate(223 -777.003)"><path class="f" d="M4.25,50H7.1l-.45,2.25H5v1.5h9v-1.5h-1.65L11.9,50h2.849A2.209,2.209,0,0,0,17,47.746v-6a2.209,2.209,0,0,0-2.25-2.25h-4.5v-.75A.708.708,0,0,1,11,38h8.248a2.209,2.209,0,0,0,2.25-2.25V29H20v6.749a.708.708,0,0,1-.75.75H11a2.209,2.209,0,0,0-2.25,2.25v.75H4.25A2.209,2.209,0,0,0,2,41.747v6A2.209,2.209,0,0,0,4.25,50Zm6.6,2.25h-2.7L8.6,50h1.8Zm3.9-3.749H4.25a.708.708,0,0,1-.75-.75V47h12v.75A.708.708,0,0,1,14.747,48.5ZM4.25,41h10.5a.708.708,0,0,1,.75.75V45.5H3.5V41.747A.708.708,0,0,1,4.25,41Z" transform="translate(641 3903.258)"/><path class="f" d="M54.746,41.747A2.209,2.209,0,0,0,52.5,39.5H48.747v-.75A2.209,2.209,0,0,0,46.5,36.5H38.25a.708.708,0,0,1-.75-.75V29H36v6.749A2.209,2.209,0,0,0,38.25,38H46.5a.708.708,0,0,1,.75.75v.75H43.5a2.209,2.209,0,0,0-2.25,2.25v5.174l-.75,2.924V51.5a2.209,2.209,0,0,0,2.25,2.25h10.5A2.209,2.209,0,0,0,55.5,51.5V50l-.75-3.074Zm-1.35,6,.375,1.5H42.224l.375-1.5Zm-10.648-6A.708.708,0,0,1,43.5,41h9a.708.708,0,0,1,.75.75v4.5h-10.5Zm10.5,10.5h-10.5A.708.708,0,0,1,42,51.5v-.75H54v.75A.708.708,0,0,1,53.247,52.245Z" transform="translate(632.495 3903.258)"/><path class="f" d="M29.749,29V39.5h-1.5A2.209,2.209,0,0,0,26,41.747V51.5a2.209,2.209,0,0,0,2.25,2.25h4.5A2.209,2.209,0,0,0,35,51.5V41.747a2.209,2.209,0,0,0-2.25-2.25h-1.5V29Zm3,23.245h-4.5a.708.708,0,0,1-.75-.75v-.75h6v.75A.708.708,0,0,1,32.749,52.245Zm.75-10.5v7.5h-6v-7.5a.708.708,0,0,1,.75-.75h4.5A.708.708,0,0,1,33.5,41.747Z" transform="translate(634.996 3903.258)"/><path class="f" d="M35.969,24.492h-4.5v1.5h4.5a9,9,0,1,0,0-18h-.15a11.975,11.975,0,0,0-20.771,0H14.9a9,9,0,1,0,0,18h4.5v-1.5H14.9a7.511,7.511,0,0,1-.6-15,13.263,13.263,0,0,0-.825,4.5h1.5a10.5,10.5,0,1,1,21,0h1.5a11.751,11.751,0,0,0-.9-4.5,7.513,7.513,0,0,1-.6,15Z" transform="translate(640.024 3910.016)"/></g><text class="h" transform="translate(801 3120)"><tspan x="-44.233" y="0">Visualization</tspan></text><g transform="translate(751.351 3033.949)"><path class="f" d="M68.9,53.543c-.352-.428-8.747-10.492-19.366-10.492S30.523,53.115,30.171,53.543l-.522.635.522.635c.352.429,8.745,10.492,19.364,10.492S68.549,55.242,68.9,54.814l.522-.635ZM49.535,63.305c-8.2,0-15.258-6.96-17.255-9.126,2-2.167,9.053-9.127,17.255-9.127S64.8,52.013,66.793,54.179C64.8,56.346,57.753,63.305,49.535,63.305Z"/><path class="f" d="M49.535,46.934a7.244,7.244,0,1,0,7.244,7.244A7.252,7.252,0,0,0,49.535,46.934Zm0,12.488a5.244,5.244,0,1,1,5.244-5.244A5.25,5.25,0,0,1,49.535,59.422Z"/><circle class="f" cx="3.128" cy="3.128" r="3.128" transform="translate(46.407 51.05)"/></g><g transform="translate(-3 -3)"><path class="f" d="M51.248,55a.348.348,0,1,0,0,.7h.522a.348.348,0,1,0,0-.7Z" transform="translate(762.864 2930.872)"/><path class="f" d="M26.648,47.5H29.2a.334.334,0,0,0,.348-.348A.308.308,0,0,0,29.2,46.8H26.648a.348.348,0,1,0,0,.7Z" transform="translate(773.189 2934.314)"/><path class="f" d="M26.648,39.5h3.075a.348.348,0,1,0,0-.7H26.648a.334.334,0,0,0-.348.348C26.358,39.322,26.474,39.5,26.648,39.5Z" transform="translate(773.189 2937.672)"/><path class="f" d="M26.648,60.3a.348.348,0,1,0,0,.7h8.646a.348.348,0,1,0,0-.7Z" transform="translate(773.189 2928.648)"/><path class="f" d="M38.37,57.948a.334.334,0,0,0-.348-.348H26.648a.348.348,0,1,0,0,.7H38.079A.368.368,0,0,0,38.37,57.948Z" transform="translate(773.189 2929.781)"/><path class="f" d="M44.648,52.8h1.219a.348.348,0,0,0,0-.7H44.648a.348.348,0,1,0,0,.7Z" transform="translate(765.634 2932.09)"/><path class="f" d="M40.948,50.2h2.9a.348.348,0,1,0,0-.7h-2.9a.348.348,0,0,0,0,.7Z" transform="translate(767.187 2933.181)"/><path class="f" d="M26.648,50.2h7.2a.348.348,0,0,0,0-.7h-7.2a.334.334,0,0,0-.348.348Q26.387,50.2,26.648,50.2Z" transform="translate(773.189 2933.181)"/><path class="f" d="M26.648,55.6h6.731a.348.348,0,0,0,0-.7H26.648a.334.334,0,0,0-.348.348C26.358,55.422,26.474,55.6,26.648,55.6Z" transform="translate(773.189 2930.915)"/><path class="f" d="M45.851,55.248A.334.334,0,0,0,45.5,54.9H40.048a.348.348,0,0,0,0,.7H45.5A.334.334,0,0,0,45.851,55.248Z" transform="translate(767.565 2930.915)"/><path class="f" d="M41.06,39.5a.348.348,0,1,0,0-.7H33.748a.348.348,0,1,0,0,.7Z" transform="translate(770.209 2937.672)"/><path class="f" d="M41.014,47.148a.334.334,0,0,0-.348-.348H32.948a.334.334,0,0,0-.348.348.308.308,0,0,0,.348.348h7.776A.325.325,0,0,0,41.014,47.148Z" transform="translate(770.545 2934.314)"/><path class="f" d="M26.648,42.2h9.865a.348.348,0,0,0,0-.7H26.648a.334.334,0,0,0-.348.348C26.358,42.022,26.474,42.2,26.648,42.2Z" transform="translate(773.189 2936.539)"/><path class="f" d="M26.648,52.8h9.342a.348.348,0,0,0,0-.7H26.648a.334.334,0,0,0-.348.348Q26.387,52.8,26.648,52.8Z" transform="translate(773.189 2932.09)"/><path class="f" d="M26.648,44.8H38.428a.348.348,0,1,0,0-.7H26.648a.334.334,0,0,0-.348.348C26.358,44.622,26.474,44.8,26.648,44.8Z" transform="translate(773.189 2935.448)"/><path class="f" d="M48.35,41.848A.334.334,0,0,0,48,41.5H45.448a.348.348,0,0,0,0,.7H48A.334.334,0,0,0,48.35,41.848Z" transform="translate(765.298 2936.539)"/><path class="f" d="M81.3,39.888a.348.348,0,0,0,.7,0v-3.54a.348.348,0,0,0-.7,0Z" transform="translate(750.104 2938.847)"/><path class="f" d="M81.648,34.025A.334.334,0,0,0,82,33.677v-.928a.348.348,0,0,0-.7,0v.928A.308.308,0,0,0,81.648,34.025Z" transform="translate(750.104 2940.358)"/><path class="f" d="M53.666,48.6a.348.348,0,1,0-.7,0v1.219H21v-17.7H53.027v4.874a.348.348,0,1,0,.7,0V29.1H20.3V50.454H53.608V48.6Zm-.638-17.118H24.71L25,29.8H52.969v1.683ZM21,29.8H24.42l-.29,1.683H21.054V29.8Z" transform="translate(775.708 2941.743)"/><circle class="f" cx="0.406" cy="0.406" r="0.406" transform="translate(812.313 2969.335)"/><path class="f" d="M55.3,50.66H50.078a1.873,1.873,0,0,0,.464-1.219v-2.9a.348.348,0,1,0-.7,0v2.9a1.226,1.226,0,0,1-1.219,1.219H13.753a1.226,1.226,0,0,1-1.219-1.219V26.057a1.226,1.226,0,0,1,1.219-1.219H48.686A1.226,1.226,0,0,1,49.9,26.057V28.03a.348.348,0,1,0,.7,0V26.057A1.833,1.833,0,0,0,48.744,24.2H13.753A1.833,1.833,0,0,0,11.9,26.057V49.384a1.762,1.762,0,0,0,.464,1.219H7.138a.644.644,0,0,0-.638.638v.29a2.576,2.576,0,0,0,2.553,2.553h4.178a.334.334,0,0,0,.348-.348.308.308,0,0,0-.348-.348H9.053a1.932,1.932,0,0,1-1.915-1.915v-.29H25.765v.174A1.313,1.313,0,0,0,27.1,52.691h8.124a1.313,1.313,0,0,0,1.335-1.335v-.116H55.243v.29a1.932,1.932,0,0,1-1.915,1.915H17.061a.334.334,0,0,0-.348.348.308.308,0,0,0,.348.348H53.386a2.576,2.576,0,0,0,2.553-2.553V51.3A.644.644,0,0,0,55.3,50.66Zm-19.323.7a.706.706,0,0,1-.7.7H27.158a.706.706,0,0,1-.7-.7v-.116h9.574v.116Z" transform="translate(781.5 2943.8)"/><path class="f" d="M21.241,74.7H19.848a.334.334,0,0,0-.348.348.308.308,0,0,0,.348.348h1.393a.348.348,0,0,0,0-.7Z" transform="translate(776.044 2922.604)"/><path class="f" d="M45.548,67.4a.348.348,0,1,0,0,.7h3.83a.348.348,0,0,0,0-.7Z" transform="translate(765.256 2925.668)"/><path class="f" d="M68.944,40.858A1.04,1.04,0,0,0,67.9,41.9v9.632a1.04,1.04,0,0,0,1.044,1.044h1.683a1.04,1.04,0,0,0,1.044-1.044V41.844A1.04,1.04,0,0,0,70.627,40.8H68.944Zm2.031.986v9.632a.4.4,0,0,1-.406.406H68.886a.4.4,0,0,1-.406-.406V41.844a.4.4,0,0,1,.406-.406h1.683C70.8,41.5,70.975,41.612,70.975,41.844Z" transform="translate(755.729 2936.833)"/><path class="f" d="M78.544,45.1A1.04,1.04,0,0,0,77.5,46.144v7.137a1.04,1.04,0,0,0,1.044,1.044h1.683a1.04,1.04,0,0,0,1.044-1.044V46.144A1.04,1.04,0,0,0,80.227,45.1Zm2.031,1.044v7.137a.4.4,0,0,1-.406.406H78.486a.4.4,0,0,1-.406-.406V46.144a.4.4,0,0,1,.406-.406h1.683A.4.4,0,0,1,80.575,46.144Z" transform="translate(751.699 2935.028)"/><path class="f" d="M89.827,49.2H88.144A1.04,1.04,0,0,0,87.1,50.244V55a1.04,1.04,0,0,0,1.045,1.044h1.683A1.04,1.04,0,0,0,90.872,55V50.244A1.122,1.122,0,0,0,89.827,49.2Zm.348,5.8a.4.4,0,0,1-.406.406H88.086A.4.4,0,0,1,87.68,55V50.244a.4.4,0,0,1,.406-.406h1.683a.4.4,0,0,1,.406.406Z" transform="translate(747.67 2933.307)"/><path class="f" d="M59.244,37.258A1.04,1.04,0,0,0,58.2,38.3V50.024a1.04,1.04,0,0,0,1.044,1.044h1.683a1.04,1.04,0,0,0,1.044-1.044V38.244A1.04,1.04,0,0,0,60.927,37.2H59.244Zm2.089.986V49.966a.4.4,0,0,1-.406.406H59.244a.4.4,0,0,1-.406-.406V38.244a.4.4,0,0,1,.406-.406h1.683A.489.489,0,0,1,61.333,38.244Z" transform="translate(759.8 2938.344)"/><circle class="f" cx="0.29" cy="0.29" r="0.29" transform="translate(797.11 2972.062)"/><circle class="f" cx="0.29" cy="0.29" r="0.29" transform="translate(797.923 2972.062)"/><circle class="f" cx="0.29" cy="0.29" r="0.29" transform="translate(798.793 2972.062)"/></g><text class="h" transform="translate(894 2924)"><tspan x="-26.292" y="0">AI &amp; ML</tspan></text><g transform="translate(872.376 2866.366)"><g transform="translate(0.003 0.012)"><path class="f" d="M.226,21.141A1.248,1.248,0,0,0,1.249,23.1h.936A2.411,2.411,0,0,1,2.5,24.35a2.521,2.521,0,0,1-.207,1.037,1.2,1.2,0,0,0,.028,1.005,1.189,1.189,0,0,0,.78.624l.385.094a1.192,1.192,0,0,0-.43.917,1.175,1.175,0,0,0,.664,1.067.624.624,0,0,0,.273.062.129.129,0,0,1,.091.219L3.457,30a2.916,2.916,0,0,0,.1,4.207,2.97,2.97,0,0,0,2.03.755H10.4a1.252,1.252,0,0,1,1.211.943l.268,1.08a.624.624,0,0,0,.606.474h18.1a.624.624,0,0,0,.624-.624V30.544a1.213,1.213,0,0,1,.4-.925A16.855,16.855,0,1,0,4.35,12.373a1.926,1.926,0,0,0,.256,1.576.744.744,0,0,1,.12.4.7.7,0,0,1-.128.4Zm5.427-7.874a.682.682,0,0,1-.1-.562A15.609,15.609,0,1,1,30.808,28.666h0a15.758,15.758,0,0,1-2.4,1.712.624.624,0,0,0,.312,1.164.617.617,0,0,0,.312-.084c.32-.187.624-.4.936-.6v5.354H12.974l-.152-.611a2.5,2.5,0,0,0-.269-.637h5.256a5.113,5.113,0,0,0,4.6-2.842.625.625,0,0,0-1.117-.558,3.87,3.87,0,0,1-3.485,2.152h-7.2c-.022,0-.041.011-.062.012-.051,0-.1-.012-.15-.012H5.584A1.728,1.728,0,0,1,4.4,33.291a1.666,1.666,0,0,1-.062-2.406l.624-.624a1.378,1.378,0,0,0-.551-2.289,1.19,1.19,0,0,0-.5-2.045l-.443-.107a3.777,3.777,0,0,0,.282-1.468,3.848,3.848,0,0,0-.2-1.248H3.6a1.257,1.257,0,0,1,.882.366l.075.075a.624.624,0,0,0,.883-.883l-.075-.075A2.513,2.513,0,0,0,3.6,21.853H2.5l-1.248,0,4.377-6.395a1.943,1.943,0,0,0,.348-1.111A1.991,1.991,0,0,0,5.652,13.267Z" transform="translate(-0.003 -0.012)"/><path class="f" d="M28.873,27.739h4.994a1.873,1.873,0,0,0,1.873-1.873V20.873A1.873,1.873,0,0,0,33.867,19H28.873A1.873,1.873,0,0,0,27,20.873v4.994A1.873,1.873,0,0,0,28.873,27.739Zm-.624-6.867a.624.624,0,0,1,.624-.624h4.994a.624.624,0,0,1,.624.624v4.994a.624.624,0,0,1-.624.624H28.873a.624.624,0,0,1-.624-.624Z" transform="translate(-10.147 -7.147)"/><path class="f" d="M18.624,24.358a.624.624,0,0,0,0,1.248h1.961A2.491,2.491,0,0,0,22.37,27.39v1.961a.624.624,0,1,0,1.248,0V27.479h1.248v1.873a.624.624,0,1,0,1.248,0V27.479h1.248v1.873a.624.624,0,1,0,1.248,0V27.479h1.248v1.873a.624.624,0,1,0,1.248,0V27.479h1.248v1.873a.624.624,0,1,0,1.248,0V27.39a2.491,2.491,0,0,0,1.784-1.784h1.961a.624.624,0,1,0,0-1.248H35.479V23.109h1.873a.624.624,0,1,0,0-1.248H35.479V20.612h1.873a.624.624,0,1,0,0-1.248H35.479V18.115h1.873a.624.624,0,1,0,0-1.248H35.479V15.618h1.873a.624.624,0,1,0,0-1.248H35.39a2.491,2.491,0,0,0-1.784-1.784V10.624a.624.624,0,1,0-1.248,0V12.5H31.109V10.624a.624.624,0,0,0-1.248,0V12.5H28.612V10.624a.624.624,0,0,0-1.248,0V12.5H26.115V10.624a.624.624,0,0,0-1.248,0V12.5H23.618V10.624a.624.624,0,1,0-1.248,0v1.961a2.491,2.491,0,0,0-1.784,1.784H18.624a.624.624,0,0,0,0,1.248H20.5v1.248H18.624a.624.624,0,0,0,0,1.248H20.5v1.248H18.624a.624.624,0,0,0,0,1.248H20.5v1.248H18.624a.624.624,0,0,0,0,1.248H20.5v1.248Zm4.37-10.612h9.988a1.248,1.248,0,0,1,1.248,1.248v9.988a1.248,1.248,0,0,1-1.248,1.248H22.994a1.248,1.248,0,0,1-1.248-1.248V14.994A1.248,1.248,0,0,1,22.994,13.745Z" transform="translate(-6.765 -3.765)"/><path class="f" d="M31.624,24.248h.624a.624.624,0,1,0,0-1.248h-.624a.624.624,0,0,0,0,1.248Z" transform="translate(-11.65 -8.65)"/><path class="f" d="M34.624,28.248h.624a.624.624,0,0,0,0-1.248h-.624a.624.624,0,1,0,0,1.248Z" transform="translate(-12.777 -10.153)"/></g></g><rect class="f" width="63" height="29" rx="5" transform="translate(837 3041)"/><rect class="f" width="78" height="29" rx="5" transform="translate(1013 3041)"/><text class="k" transform="translate(869 3061)"><tspan x="-20.762" y="0">Cloud</tspan></text><text class="k" transform="translate(1052 3061)"><tspan x="-33.327" y="0">Cognitive</tspan></text><path class="l" d="M16024.205,2964.949,16361.68,2723.9" transform="translate(-14942 -52)"/><path class="l" d="M16361.68,2964.949,16024.205,2723.9" transform="translate(-14782.943 466.053)"/><circle class="c" cx="13" cy="13" r="13" transform="translate(1410 2657)"/><circle class="b" cx="13" cy="13" r="13" transform="translate(1566 3420)"/><path class="l" d="M15738.092,2993.076h-444.609" transform="translate(-14942 -52)"/><circle class="c" cx="13" cy="13" r="13" transform="translate(335 2928)"/><g transform="translate(1177.277 2669.468)"><path class="f" d="M12.492,26.858V51.9a.683.683,0,0,0,.683.683H51.138a.683.683,0,0,0,.683-.683V26.858a.683.683,0,0,0-.683-.683H13.174A.683.683,0,0,0,12.492,26.858Zm1.365.683h36.6V51.219h-36.6Z" transform="translate(-0.878 -2.214)"/><path class="f" d="M25.783,10.016a2.72,2.72,0,1,0-3.4,2.623v7.433h-6.3V13.481A.683.683,0,0,0,15.4,12.8H8.064a2.719,2.719,0,1,0,0,1.365h6.652v5.909H10.689a2.967,2.967,0,0,0-2.964,2.963V52.893H6.441a.683.683,0,0,0-.683.683v1.071a5.082,5.082,0,0,0,5.076,5.076h40.9A5.071,5.071,0,0,0,56.8,54.658V53.576a.683.683,0,0,0-.683-.683H54.831V23.036a2.967,2.967,0,0,0-2.963-2.963H46.751V14.164H53.4a2.72,2.72,0,1,0,0-1.365H46.068a.683.683,0,0,0-.683.683v6.591h-6.3V12.64a2.72,2.72,0,1,0-1.365,0v7.435h-6.3V6.873a2.719,2.719,0,1,0-1.365,0v13.2h-6.3V12.637A2.717,2.717,0,0,0,25.783,10.016ZM5.442,14.837a1.356,1.356,0,0,1-1.354-1.355,1.339,1.339,0,0,1,1.354-1.354A1.355,1.355,0,0,1,6.8,13.47s0,.007,0,.011,0,.008,0,.012A1.355,1.355,0,0,1,5.442,14.837Zm50.584-2.709a1.34,1.34,0,0,1,1.355,1.354,1.354,1.354,0,0,1-2.708.009s0-.007,0-.011,0-.006,0-.01A1.355,1.355,0,0,1,56.026,12.128ZM37.051,10.016a1.34,1.34,0,0,1,1.354-1.355,1.351,1.351,0,0,1,.154,2.693.4.4,0,0,0-.314,0A1.351,1.351,0,0,1,37.051,10.016ZM29.38,4.252A1.34,1.34,0,0,1,30.734,2.9a1.354,1.354,0,0,1,.006,2.708h-.012A1.355,1.355,0,0,1,29.38,4.252ZM55.433,54.658a3.7,3.7,0,0,1-3.7,3.7h-40.9a3.715,3.715,0,0,1-3.711-3.711v-.388H23.442L24.5,56.092a.683.683,0,0,0,.592.343H37.469a.683.683,0,0,0,.592-.343l1.054-1.834H55.433v.4Zm-30.416-.4H37.54l-.466.811H25.483ZM53.466,23.036V52.893H9.09V23.036a1.6,1.6,0,0,1,1.6-1.6H51.868A1.6,1.6,0,0,1,53.466,23.036ZM21.709,10.016a1.34,1.34,0,0,1,1.354-1.355,1.351,1.351,0,0,1,.159,2.693.4.4,0,0,0-.314,0A1.351,1.351,0,0,1,21.709,10.016Z" transform="translate(0)"/><path class="f" d="M42.42,45.864c-.01-.049-.031-.094-.043-.143a3.861,3.861,0,0,0-.186-.595c-.008-.02-.021-.036-.03-.056a3.924,3.924,0,0,0-.812-1.193.625.625,0,0,0-.06-.053,3.53,3.53,0,0,0-1.859-.989c-.054-.012-.108-.021-.163-.031-1.364-.213-2.136-.127-2.115-1.946a4.8,4.8,0,0,0,1.014-1.945c1.176-.925,1.558-2.24.607-3.38.395-2.213.014-4.592-2.118-5.319-4.665-2.466-8.325.122-8.116,3.64l.074,1.186.026.449a2.394,2.394,0,0,0,.587,3.546,4.482,4.482,0,0,0,1.01,2.19,1.412,1.412,0,0,1-.452,1.161c-.812.755-2.457-.135-4.019,1.875a3.908,3.908,0,0,0-.844,2.424l.006,2.633a.679.679,0,0,0,.2.484l0,0a.683.683,0,0,0,.482.2h0l16.208-.044a.688.688,0,0,0,.681-.691L42.5,46.646A3.928,3.928,0,0,0,42.42,45.864Zm-12.686-1.9a2.381,2.381,0,0,0,.824-.388,3.486,3.486,0,0,0,6.351-.024,2.979,2.979,0,0,0,1.705.55l.188.018a3.172,3.172,0,0,1,.433.066,2.482,2.482,0,0,1,1.23.749l0,0a2.608,2.608,0,0,1,.664,1.707l0,1.944-14.843.04,0-1.942C26.291,44.039,29.093,44.17,29.734,43.964Zm6.109-2.016a2.163,2.163,0,0,1-.614,1.677,2.114,2.114,0,0,1-3.612-1.39A4.879,4.879,0,0,0,35.843,41.948Zm-5.9-7.518-.039-.66c-.166-2.648,2.718-4.2,6.144-2.33.393.216,1.42.36,1.49,2.395a2.779,2.779,0,0,1-.827-.733.683.683,0,0,0-.942-.254C34.332,33.706,31.753,34.678,29.943,34.429ZM30,35.8a11.6,11.6,0,0,0,5.947-1.493,6.654,6.654,0,0,0,1.474,1.046c-.026.139-.046.227-.047.235-.162.689.625.745.572,1.363-.061.69-.949.914-1.053,1.423-.723,3.547-5.912,4-6.354.184a.683.683,0,0,0-.322-.5C28.705,37.131,29.934,36.235,30,35.8Z" transform="translate(-1.995 -2.49)"/></g></g></svg>