<svg xmlns="http://www.w3.org/2000/svg" width="1700" height="808" viewBox="0 0 1700 808"><defs><style>.a,.d,.g{fill:#4e4e4e;}.a{font-size:62px;font-family:HelveticaNeue-Bold, Helvetica Neue;font-weight:700;}.b{fill:#8bc2ff;opacity:0.3;}.c{fill:none;stroke:#4e4e4e;stroke-miterlimit:10;stroke-width:2px;opacity:0.49;}.d{font-size:28px;font-family:HelveticaNeue-Medium, Helvetica Neue;font-weight:500;}.e{fill:#043864;}.f{fill:#e62a38;}.g{font-size:16px;font-family:HelveticaNeue, Helvetica Neue;opacity:0.7;}.h{fill:#1d4776;}.i{fill:#fff;}.j{fill:#dd112a;}</style></defs><g transform="translate(-110 -1613)"><text class="a" transform="translate(140 1673)"><tspan x="0" y="0">Capabilities</tspan></text><rect class="b" width="569" height="649" rx="10" transform="translate(140 1772)"/><rect class="b" width="569" height="649" rx="10" transform="translate(1211 1772)"/><path class="c" d="M460.384,301.919V117.078c0-8.527,8.169-13.151,15.165-13.151H629.066" transform="translate(581.616 1716.596)"/><path class="c" d="M629.067,301.919V117.078c0-8.527-8.169-13.151-15.165-13.151H460.384" transform="translate(248.776 1716.596)"/><text class="d" transform="translate(1252 1812)"><tspan x="0" y="27">Hyper Personalization</tspan></text><text class="d" transform="translate(200 1812)"><tspan x="0" y="27">Spee</tspan></text><text class="d" transform="translate(200 2028)"><tspan x="0" y="27">Innovation</tspan></text><circle class="e" cx="7" cy="7" r="7" transform="translate(1204 1814)"/><circle class="f" cx="7" cy="7" r="7" transform="translate(702 1814)"/><text class="g" transform="translate(1252 1861)"><tspan x="0" y="15">- Integrate key elements of digital media</tspan></text><text class="g" transform="translate(200 1861)"><tspan x="0" y="15">- Multi-speed IT</tspan></text><text class="g" transform="translate(200 1894)"><tspan x="0" y="15">- Optimized DevOps </tspan></text><text class="g" transform="translate(200 1927)"><tspan x="0" y="15">- Cloud</tspan></text><text class="g" transform="translate(200 1960)"><tspan x="0" y="15">- Intelligent infrastructure automation for high </tspan><tspan x="0" y="35">availability and scalability</tspan></text><text class="g" transform="translate(200 2079)"><tspan x="0" y="15">- A high-level roadmap to assess and attain digital marketing </tspan></text><text class="g" transform="translate(200 2108)"><tspan x="0" y="15">- Bring business, marketing, and IT into the same </tspan></text><text class="g" transform="translate(200 2141)"><tspan x="0" y="15">- Harness the power of cognitive technology into digital </tspan><tspan x="0" y="35">marketing for transformation</tspan></text><text class="g" transform="translate(200 2195)"><tspan x="0" y="15">-Identifying areas where cognitive technology can </tspan><tspan x="0" y="35">make a real difference</tspan></text><text class="g" transform="translate(200 2246)"><tspan x="0" y="15">-Embedding cognitive solutions early and their deep </tspan><tspan x="0" y="35">integration into strategy</tspan></text><text class="g" transform="translate(200 2297)"><tspan x="0" y="15">-Gathering and understanding of people and machine-centric </tspan></text><text class="g" transform="translate(200 2333)"><tspan x="0" y="15">-Consolidating, standardizing, virtualizing, and </tspan><tspan x="0" y="35">automating infrastructure</tspan></text><text class="g" transform="translate(1252 1975)"><tspan x="0" y="15">- Identification of tangible and cost-effective way to </tspan><tspan x="0" y="35">experiment based on pragmatic use cases</tspan></text><text class="g" transform="translate(1252 1899)"><tspan x="0" y="15">- Develop solutions that span multiple vendors and </tspan></text><text class="g" transform="translate(1252 2034)"><tspan x="0" y="15">- Selection of platform</tspan></text><text class="g" transform="translate(1252 1937)"><tspan x="0" y="15">- Gain real-time, outside-in focus</tspan></text><text class="g" transform="translate(1252 2072)"><tspan x="0" y="15">- Availability of skill sets</tspan></text><text class="g" transform="translate(1252 2110)"><tspan x="0" y="15">- Optimization of cost-benefit-ROI</tspan></text><rect class="h" width="60" height="60" rx="5" transform="translate(1750 1806)"/><rect class="h" width="60" height="60" rx="5" transform="translate(110 1796)"/><rect class="h" width="60" height="60" rx="5" transform="translate(110 2019)"/><g transform="translate(117 1804)"><g transform="translate(4 5)"><path class="i" d="M40.68,5H6.065A2.068,2.068,0,0,0,4,7.065V30.61a2.068,2.068,0,0,0,2.065,2.065H21.257c-.122,1.336-.628,4.151-2.727,4.151H12.994V38.21H33.751V36.826H28.216c-2.091,0-2.6-2.815-2.726-4.151H40.68a2.068,2.068,0,0,0,2.065-2.065V7.065A2.068,2.068,0,0,0,40.68,5ZM21.3,36.826a8.356,8.356,0,0,0,1.344-4.151H24.1a8.37,8.37,0,0,0,1.344,4.151ZM41.361,30.61a.682.682,0,0,1-.681.682H6.065a.682.682,0,0,1-.681-.682v-.7H41.361Zm0-2.086H5.384V9.151H41.361Zm0-20.756H5.384v-.7a.682.682,0,0,1,.681-.681H40.68a.682.682,0,0,1,.681.681Z" transform="translate(-4 -5)"/><path class="i" d="M15.151,27.529a10.362,10.362,0,0,1,17.2-7.8l-5.934,5.934a2.042,2.042,0,0,0-.889-.208,2.076,2.076,0,1,0,2.076,2.076,2.042,2.042,0,0,0-.208-.889l5.934-5.934a10.323,10.323,0,0,1,2.577,6.823v.692h4.151v-.692a14.456,14.456,0,0,0-3.794-9.757l.824-.824-.978-.978-.824.824A14.5,14.5,0,0,0,11,27.529v.692h4.151Zm10.378.692a.692.692,0,1,1,.692-.692A.693.693,0,0,1,25.529,28.221Zm9.762-9.475a13.087,13.087,0,0,1,3.366,8.092H37.271a11.71,11.71,0,0,0-2.956-7.115Zm-9.07-4.328A13.076,13.076,0,0,1,34.31,17.77l-.979.979a11.7,11.7,0,0,0-7.11-2.948Zm-1.384,0V15.8a11.7,11.7,0,0,0-7.11,2.948l-.979-.979A13.076,13.076,0,0,1,24.838,14.418ZM12.4,26.838a13.087,13.087,0,0,1,3.366-8.092l.976.976a11.711,11.711,0,0,0-2.956,7.115Z" transform="translate(-6.157 -7.465)"/></g></g><g transform="translate(-32.612 1813.098)"><path class="i" d="M254.686,560.443h-9.706a1.024,1.024,0,0,0,0,2.047h9.706a1.024,1.024,0,1,0,0-2.047Z" transform="translate(-77.35 -310.443)"/><path class="i" d="M263.906,588.592h-7.279a1.024,1.024,0,1,0,0,2.047h7.279a1.024,1.024,0,0,0,0-2.047Z" transform="translate(-87.783 -335.66)"/><path class="i" d="M273.127,616.736h-4.853a1.024,1.024,0,1,0,0,2.047h4.853a1.024,1.024,0,1,0,0-2.047Z" transform="translate(-98.218 -360.873)"/><path class="i" d="M315.63,230.538c.607.2,1.769-.708,2.073-1.517s3.993-1.365,5.055.152,2.983-2.224-.91-8.391-2.881-.152-3.538,1.112c-.211.406-1.365.758-.859,1.618s2.224,1.112,2.679-.051,1.365.253.91,1.062a2.6,2.6,0,0,1-3.134,1.163c-1.517-.505-2.275-1.82-2.628-1.264s-.86,2.831-1.82,2.78-1.163-.1-.354-2.072a7.361,7.361,0,0,0,.607-4.4c-.2-1.163,1.517,1.062,2.426.1s2.78-3.791-.607-5.712-5.2-1.551-5.181.979c.02,2.658.02,15.149.02,15.149a6.185,6.185,0,0,0,1.875,3.991c1.035.885-.86,1.567-1.87.253l.051,13.251,4.2.094s3.033-.708,1.314-3.64-4.095-5.914-2.78-7.33,3.387,4.7,5.257,5.207,4.449-4.7,3.741-6.117-3.437.2-4.7-.758.607-2.73,2.073-1.971,3.791.2,3.842-1.062a2.579,2.579,0,0,0-3.741-2.426c-2.477,1.112-5,3.69-5.965,3.134s.1-1.062.708-1.769-2.123-1.87-1.011-2.831S315.023,230.336,315.63,230.538Z" transform="translate(-136.825)"/><path class="i" d="M171.368,248.743l.05-13.251c-1.011,1.314-2.9.631-1.87-.253a6.185,6.185,0,0,0,1.875-3.991s0-12.491.02-15.149c.02-2.529-1.794-2.9-5.181-.979s-1.516,4.752-.607,5.712,2.629-1.264,2.426-.1a7.367,7.367,0,0,0,.607,4.4c.809,1.971.607,2.022-.354,2.072s-1.466-2.224-1.82-2.78-1.112.758-2.629,1.264a2.6,2.6,0,0,1-3.134-1.163c-.455-.809.455-2.224.91-1.062s2.173.91,2.679.051-.648-1.211-.859-1.618c-.657-1.264.354-7.279-3.539-1.112s-1.972,9.908-.91,8.391,4.752-.96,5.055-.152,1.466,1.719,2.072,1.516,1.163-2.224,2.275-1.264-1.618,2.123-1.011,2.831,1.668,1.213.708,1.769-3.488-2.022-5.965-3.134a2.579,2.579,0,0,0-3.741,2.426c.051,1.264,2.376,1.82,3.842,1.062s3.336,1.011,2.072,1.971-3.994-.657-4.7.758,1.87,6.622,3.741,6.117,3.943-6.622,5.257-5.207-1.062,4.4-2.78,7.33,1.314,3.64,1.314,3.64Z" transform="translate(0 0)"/></g><g transform="translate(1756.566 1813.264)"><path class="i" d="M14.658,9.523a.655.655,0,0,0,.66-.308,18.508,18.508,0,0,1,16.2-7.086,18.242,18.242,0,0,1,13.6,8.495l-1.452-.528a.618.618,0,0,0-.616.088.73.73,0,0,0-.264.7.661.661,0,0,0,.484.528c1.144.352,2.025.66,2.949,1.012a.4.4,0,0,0,.22.044,1.12,1.12,0,0,0,.308-.088.7.7,0,0,0,.352-.44c.352-1.144.66-2.025,1.012-2.949a.758.758,0,0,0-.088-.748.766.766,0,0,0-.66-.22.661.661,0,0,0-.528.484h0c-.132.484-.308.924-.44,1.364A19.981,19.981,0,0,0,20.6,2.921a19.019,19.019,0,0,0-6.47,5.546.618.618,0,0,0-.088.616A.662.662,0,0,0,14.658,9.523Z" transform="translate(-6.472)"/><path class="i" d="M71.051,37.985a19.5,19.5,0,0,0-2.421-9.2.541.541,0,0,0-.484-.308.611.611,0,0,0-.484.088.7.7,0,0,0-.308.4.736.736,0,0,0,.044.528,18.406,18.406,0,0,1-.836,18.662,18.021,18.021,0,0,1-14.04,8.011c.264-.308.528-.66.792-.968a.762.762,0,0,0-.176-1.056.623.623,0,0,0-.88.088c-.616.792-1.276,1.584-1.981,2.421a.745.745,0,0,0,.044,1.012c.792.616,1.585,1.276,2.421,1.937a.9.9,0,0,0,.748.088.871.871,0,0,0,.484-.572.627.627,0,0,0-.264-.528l-.088-.088c-.352-.264-.7-.572-1.056-.836A19.77,19.77,0,0,0,71.051,37.985Z" transform="translate(-26.686 -15.522)"/><path class="i" d="M21.962,52.1A17.96,17.96,0,0,1,8.978,46.554a18.6,18.6,0,0,1-4.93-15.1A18.31,18.31,0,0,1,7,23.843c.044.484.132.968.176,1.408a.575.575,0,0,0,.616.528h.088a.832.832,0,0,0,.7-.88c-.132-.748-.22-1.54-.352-2.289h.088l-.088-.044c-.044-.22-.044-.484-.088-.7a.641.641,0,0,0-.264-.4.88.88,0,0,0-.572-.088c-.924.132-2.025.308-3.037.44a.531.531,0,0,0-.528.352.787.787,0,0,0,.132.748.658.658,0,0,0,.66.264c.44-.088.924-.132,1.408-.22a19.416,19.416,0,0,0,16.021,30.5.694.694,0,0,0,.7-.7A.718.718,0,0,0,21.962,52.1Z" transform="translate(0 -11.547)"/><path class="i" d="M45.2,33.365a.661.661,0,0,0,1.012-.572v-.088h0V27.424a.7.7,0,0,0-.7-.7H43.356a14.745,14.745,0,0,0-.836-1.981L44.1,23.154a.729.729,0,0,0,.22-.572.542.542,0,0,0-.22-.44l-3.785-3.829a.729.729,0,0,0-.572-.22.542.542,0,0,0-.44.22L37.722,19.9a12.685,12.685,0,0,0-1.981-.836V16.9a.7.7,0,0,0-.7-.7h-5.37a.7.7,0,0,0-.7.7v2.157a13.126,13.126,0,0,0-2.025.836L25.4,18.313a.729.729,0,0,0-.572-.22.542.542,0,0,0-.44.22L20.6,22.1a.729.729,0,0,0-.22.572.542.542,0,0,0,.22.44l1.5,1.5a11.546,11.546,0,0,0-.836,2.025H19.1a.7.7,0,0,0-.7.7v5.37a.7.7,0,0,0,.7.7h2.157a9.433,9.433,0,0,0,.88,2.069l-1.5,1.5a.729.729,0,0,0-.22.572.542.542,0,0,0,.22.44l3.785,3.785a.729.729,0,0,0,.572.22.542.542,0,0,0,.44-.22l1.54-1.54a13.125,13.125,0,0,0,2.025.836v2.157a.7.7,0,0,0,.7.7h5.37a.7.7,0,0,0,.7-.7V41.068a9.758,9.758,0,0,0,1.981-.88l1.585,1.585a.729.729,0,0,0,.572.22.542.542,0,0,0,.44-.22l3.785-3.785a.729.729,0,0,0,.22-.572.542.542,0,0,0-.22-.44L42.564,35.39a14.746,14.746,0,0,0,.836-1.981h1.8Zm-3.081-.88a11.556,11.556,0,0,1-1.1,2.641.834.834,0,0,0,.088.836l1.452,1.452-2.773,2.861-1.452-1.452a.676.676,0,0,0-.836-.088,12.951,12.951,0,0,1-2.641,1.144.714.714,0,0,0-.528.7V42.52H30.328V40.54a.753.753,0,0,0-.528-.7,12.631,12.631,0,0,1-2.729-1.1.834.834,0,0,0-.836.088l-1.408,1.452-2.817-2.817,1.364-1.364a.676.676,0,0,0,.088-.836,10.567,10.567,0,0,1-1.144-2.729.714.714,0,0,0-.7-.528H19.632V28h1.981a.753.753,0,0,0,.7-.528,10.853,10.853,0,0,1,1.144-2.773.834.834,0,0,0-.088-.836l-1.364-1.364,2.817-2.817,1.408,1.408a.676.676,0,0,0,.836.088,15.032,15.032,0,0,1,2.685-1.1.714.714,0,0,0,.528-.7V17.388h4.005v1.981a.753.753,0,0,0,.528.7,9.586,9.586,0,0,1,2.641,1.144.834.834,0,0,0,.836-.088l.572-.572h.044l.88-.88,2.817,2.817-1.5,1.452a.676.676,0,0,0-.088.836,11.556,11.556,0,0,1,1.1,2.641.714.714,0,0,0,.7.528h1.981v4.005H42.828A.817.817,0,0,0,42.124,32.485Z" transform="translate(-8.938 -8.658)"/><path class="i" d="M45.278,36.241a5.258,5.258,0,0,0-5.942,1.54,5.024,5.024,0,0,0-.4,5.854,5.175,5.175,0,0,0,4.445,2.6,5.392,5.392,0,0,0,.836-.088,5.239,5.239,0,0,0,4.357-4.709.829.829,0,0,0,.088-.352A5.573,5.573,0,0,0,45.278,36.241Zm1.893,4.842A3.785,3.785,0,1,1,43.253,37.3h.088A3.911,3.911,0,0,1,47.17,41.083Z" transform="translate(-20.015 -19.676)"/></g><g transform="translate(-914.105 914.697)"><path class="e" d="M1854.261,1018.384a162.837,162.837,0,0,0,0,323.318,11.358,11.358,0,0,0,12.642-11.317v-68.051a11.471,11.471,0,0,0-9.078-11.148,72.91,72.91,0,0,1,0-142.275,11.472,11.472,0,0,0,9.078-11.149V1029.7A11.359,11.359,0,0,0,1854.261,1018.384Z"/><path class="j" d="M1893.949,1018.384a11.36,11.36,0,0,0-12.642,11.318v68.06a11.468,11.468,0,0,0,9.078,11.146,72.913,72.913,0,0,1,0,142.28,11.469,11.469,0,0,0-9.078,11.146v68.051a11.359,11.359,0,0,0,12.642,11.317,162.837,162.837,0,0,0,0-323.318Z"/></g><g transform="translate(0 -1.921)"><g transform="translate(0 -321.096)"><circle class="j" cx="25.97" cy="25.97" r="25.97" transform="translate(767.766 2392.017)"/><g transform="translate(789.929 2409.564)"><path class="i" d="M137.246,253.588h-4.425V242.119h-3.189v-2.76a6.542,6.542,0,0,0,3.034-.571,3.224,3.224,0,0,0,1.392-2.046h3.188Z" transform="translate(-129.632 -236.742)"/></g></g><g transform="translate(0 -321.096)"><circle class="h" cx="25.97" cy="25.97" r="25.97" transform="translate(1100.295 2392.234)"/><g transform="translate(1120.722 2409.782)"><path class="i" d="M659.023,242.8h-4.14a6.842,6.842,0,0,1,1.047-4.14q1.261-1.57,4.473-1.57,3.07,0,4.378,1.356a4.509,4.509,0,0,1,1.048,3.236,6.723,6.723,0,0,1-2.094,5l-2.617,2.546q-.453.453-.619.643a2.385,2.385,0,0,0-.476.738h5.806v3.331H654.741a8.833,8.833,0,0,1,2.522-6.448l2.951-3a3.839,3.839,0,0,0,1.189-2.76q0-1.879-1.142-1.879-1.238,0-1.237,2.236Z" transform="translate(-654.741 -237.088)"/></g></g></g></g></svg>